<?xml version="1.0" encoding="UTF-8"?>
<svg xmlns="http://www.w3.org/2000/svg" version="1.1" width="525.0584mm" height="609.631mm" viewBox="0 0 525.0584 609.631">
<desc>kiri export: profile=felt_laser hinge=living-hinge-neck theta=0.3994 rad, scale=10 mm/unit, units=mm, faces=101</desc>
<g id="cut" fill="none" stroke="#000000" stroke-width="0.1">
  <path id="cut_face_0" d="M 259.316 545.6505 L 211.9449 546.45 L 211.5763 546.1664 L 211.4239 546.3645 L 212.6127 547.2792 L 212.7652 547.081 L 246.1554 572.7702 L 246.1305 572.8215 L 246.3554 572.9306 L 247.0103 571.5811 L 246.7854 571.472 Z"/>
  <path id="cut_face_1" d="M 336.8018 109.572 L 336.8169 109.5561 L 336.9986 109.7278 L 338.0291 108.6379 L 337.8475 108.4661 L 392.2955 50.8783 L 257.0713 46.9809 L 257.0021 46.9265 L 256.8477 47.1231 L 258.0276 48.0494 L 258.1819 47.8527 Z"/>
  <path id="cut_face_2" d="M 342.3534 233.835 L 334.6007 161.9655 L 334.8492 161.9387 L 334.6883 160.4473 L 334.4398 160.4741 L 334.4617 160.6771 L 262.4155 217.9731 L 262.2599 217.7775 L 261.0859 218.7111 L 261.2415 218.9068 L 261.4744 218.7216 L 340.9638 233.5753 L 340.9178 233.8211 L 342.3923 234.0966 L 342.4382 233.8509 Z"/>
  <path id="cut_face_3" d="M 228.9635 129.0119 L 304.3241 135.7268 L 304.3019 135.9758 L 305.796 136.1089 L 305.8182 135.8599 L 305.5981 135.8403 L 257.2804 48.6207 L 257.4991 48.4996 L 256.7722 47.1875 L 256.5535 47.3086 L 256.7057 47.5834 L 229.4252 127.6567 L 229.1885 127.5761 L 228.7048 128.996 L 228.9414 129.0766 Z"/>
  <path id="cut_face_4" d="M 199.9711 183.6044 L 234.7308 223.956 L 234.5414 224.1192 L 235.5203 225.2557 L 235.7098 225.0925 L 235.393 224.7248 L 231.8816 161.6398 L 232.1312 161.6259 L 232.0479 160.1282 L 231.7982 160.1421 L 231.8099 160.3518 Z"/>
  <path id="cut_face_5" d="M 260.9023 218.3226 L 260.7905 218.5275 L 261.01 218.6473 L 261.7286 217.3306 L 261.5091 217.2109 L 305.526 136.5602 L 305.8834 136.4456 L 305.807 136.2075 L 304.3787 136.6658 L 304.4551 136.9038 L 232.3855 160.0283 L 232.3684 159.9933 L 232.1438 160.1032 L 232.803 161.4506 L 233.0275 161.3407 Z"/>
  <path id="cut_face_6" d="M 506.4008 558.9009 L 456.7833 515.6709 L 456.9475 515.4824 L 455.8165 514.4971 L 455.6523 514.6855 L 455.6426 514.6771 L 408.8821 562.9643 L 408.7025 562.7903 L 407.659 563.8679 L 407.8386 564.0418 L 407.8515 564.0284 Z"/>
  <path id="cut_face_7" d="M 410.6862 77.7238 L 338.5295 109.4343 L 338.4289 109.2054 L 337.0557 109.8089 L 337.1563 110.0378 L 339.5027 109.0066 L 401.8096 93.9716 L 401.8683 94.2146 L 403.3264 93.8627 L 403.2678 93.6197 L 403.3929 93.5895 L 410.2303 78.7157 L 410.4574 78.8201 L 411.0839 77.4572 L 410.8568 77.3528 Z"/>
  <path id="cut_face_8" d="M 350.1248 133.5866 L 348.4766 134.2669 L 348.572 134.498 L 349.9585 133.9257 L 349.8631 133.6946 L 402.7497 111.8669 L 402.7524 111.7786 L 403.0023 111.7865 L 403.0496 110.2872 L 402.7997 110.2793 L 403.3033 94.3114 L 403.5169 94.1537 L 403.3683 93.9526 L 402.1617 94.8437 L 402.3103 95.0448 Z"/>
  <path id="cut_face_9" d="M 251.4736 490.7807 L 279.1454 506.575 L 289.6463 457.539 L 289.8907 457.5913 L 290.2048 456.1246 L 289.9604 456.0722 L 289.8526 456.5756 L 252.5204 489.8477 L 252.3541 489.6611 L 251.2343 490.6591 L 251.4006 490.8458 Z"/>
  <path id="cut_face_10" d="M 247.6212 505.9678 L 247.7401 505.8506 L 247.5646 505.6726 L 246.4965 506.7257 L 246.672 506.9038 L 210.6368 542.436 L 258.1763 541.6337 L 258.1987 541.7093 L 258.4384 541.6384 L 258.0128 540.2001 L 257.773 540.271 Z"/>
  <path id="cut_face_11" d="M 258.8175 541.3736 L 289.41 521.0689 L 289.5482 521.2772 L 290.798 520.4478 L 290.6598 520.2395 L 290.5301 520.3255 L 262.9418 504.5789 L 258.9528 540.1669 L 258.7043 540.139 L 258.5372 541.6297 L 258.7857 541.6575 Z"/>
  <path id="cut_face_12" d="M 23.9074 149.6768 L 23.7373 150.0629 L 23.9661 150.1637 L 24.5709 148.791 L 24.3422 148.6902 L 46.9436 97.4013 L 46.8968 97.2525 L 47.1353 97.1775 L 46.6856 95.7465 L 46.4471 95.8215 L 30.1398 43.9323 Z"/>
  <path id="cut_face_13" d="M 411.4307 77.4768 L 411.4303 77.4878 L 411.1805 77.4799 L 411.1332 78.9792 L 411.383 78.9871 L 410.8721 95.1881 L 410.84 95.1909 L 410.8623 95.4399 L 412.3563 95.3058 L 412.334 95.0568 L 427.3694 93.7063 Z"/>
  <path id="cut_face_14" d="M 426.1758 100.706 L 412.2038 96.2339 L 412.28 95.9958 L 410.8514 95.5385 L 410.7752 95.7766 L 410.748 95.7679 L 403.9525 110.5507 L 403.7254 110.4463 L 403.0989 111.8092 L 403.326 111.9136 L 403.5099 111.5136 Z"/>
  <path id="cut_face_15" d="M 52.84 40.8848 L 47.6249 95.6976 L 47.376 95.6739 L 47.2339 97.1671 L 47.4828 97.1908 L 47.8437 93.3982 L 59.0287 42.8737 L 59.2727 42.9278 L 59.597 41.4632 L 59.3529 41.4092 L 59.3977 41.2067 Z"/>
  <path id="cut_face_16" d="M 70.209 97.3673 L 70.0734 97.4793 L 70.2326 97.672 L 71.389 96.7165 L 71.2297 96.5238 L 86.0587 84.2702 L 86.042 84.2432 L 86.2545 84.1114 L 85.4638 82.8367 L 85.2514 82.9685 L 60.1356 42.4747 L 59.942 41.4199 L 59.6961 41.465 L 59.9669 42.9404 L 60.2128 42.8953 Z"/>
  <path id="cut_face_17" d="M 269.5337 553.0781 L 247.7271 572.1901 L 247.5623 572.0021 L 246.4343 572.9907 L 246.599 573.1788 L 247.0588 572.7759 L 328.0656 560.1486 L 328.1041 560.3956 L 329.5862 560.1646 L 329.5477 559.9176 L 328.0103 560.1572 L 271.1602 553.275 L 271.1902 553.0268 L 269.7011 552.8466 L 269.6711 553.0948 Z"/>
  <path id="cut_face_18" d="M 327.1786 536.027 L 327.5961 536.2053 L 327.6943 535.9754 L 326.3148 535.3863 L 326.2166 535.6163 L 291.0996 520.6212 L 291.0765 520.656 L 290.8682 520.5179 L 290.0393 521.768 L 290.2476 521.9062 L 270.036 552.3895 L 269.6244 552.5074 L 269.6933 552.7477 L 271.1353 552.3348 L 271.0665 552.0944 Z"/>
  <path id="cut_face_19" d="M 329.868 560.3986 L 329.7522 560.4702 L 329.6207 560.2576 L 328.345 561.0468 L 328.4765 561.2594 L 258.6853 604.4328 L 376.9609 574.9722 L 377.1167 575.0204 L 377.1906 574.7816 L 375.7577 574.3381 L 375.6837 574.5769 Z"/>
  <path id="cut_face_20" d="M 120.9282 404.2614 L 112.9029 446.0132 L 112.6574 445.966 L 112.3742 447.439 L 112.6197 447.4862 L 112.6954 447.0928 L 182.8175 394.093 L 182.9682 394.2925 L 184.1649 393.388 L 184.0141 393.1886 L 183.3969 393.6551 L 122.4826 403.9975 L 122.4408 403.751 L 120.9619 404.0021 L 121.0038 404.2486 Z"/>
  <path id="cut_face_21" d="M 261.5877 252.5124 L 258.6489 294.4706 L 258.3995 294.4531 L 258.2947 295.9494 L 258.5441 295.9669 L 258.5439 295.9705 L 297.7568 299.2863 L 297.7357 299.5354 L 299.2304 299.6618 L 299.2514 299.4127 L 298.9225 299.3848 L 262.278 253.379 L 262.4735 253.2232 L 261.539 252.0499 L 261.3434 252.2057 Z"/>
  <path id="cut_face_22" d="M 314.9856 280.7711 L 314.9895 280.7644 L 315.2052 280.8909 L 315.9643 279.5972 L 315.7487 279.4707 L 342.1335 234.5084 L 342.447 234.44 L 342.3938 234.1958 L 340.9282 234.5152 L 340.9815 234.7595 L 262.0919 251.9557 L 261.7223 251.7544 L 261.6027 251.974 L 262.9199 252.6915 L 263.0395 252.472 Z"/>
  <path id="cut_face_23" d="M 484.1533 180.4584 L 437.4868 118.5231 L 437.4888 118.4634 L 437.2389 118.455 L 437.189 119.9542 L 437.4388 119.9625 L 436.4473 149.7263 L 436.5383 149.7849 L 436.4029 149.9951 L 437.6639 150.8074 L 437.7993 150.5973 Z"/>
  <path id="cut_face_24" d="M 423.9373 146.4282 L 436.2865 119.6891 L 436.5135 119.7939 L 437.1424 118.4321 L 436.9155 118.3273 L 436.7301 118.7287 L 413.7465 129.6878 L 423.2712 145.334 L 423.0576 145.464 L 423.8376 146.7453 L 424.0512 146.6153 Z"/>
  <path id="cut_face_25" d="M 190.0891 112.609 L 190.0809 112.6056 L 189.9833 112.8357 L 191.3641 113.4217 L 191.4618 113.1915 L 228.3458 128.8429 L 228.3571 129.001 L 228.6064 128.9832 L 228.5 127.487 L 228.2507 127.5048 L 222.2785 43.5246 L 222.5805 42.8766 L 222.3539 42.771 L 221.7203 44.1307 L 221.9469 44.2363 Z"/>
  <path id="cut_face_26" d="M 187.0021 166.2189 L 218.7724 143.0164 L 190.7921 114.1683 L 190.9715 113.9943 L 189.9272 112.9175 L 189.7477 113.0916 L 189.9708 113.3215 L 187.0705 164.9992 L 186.8209 164.9852 L 186.7369 166.4828 L 186.9865 166.4968 Z"/>
  <path id="cut_face_27" d="M 169.3077 259.5914 L 169.011 259.7453 L 169.1261 259.9672 L 170.4576 259.2765 L 170.3425 259.0546 L 235.1309 225.4501 L 235.3485 225.558 L 235.4595 225.334 L 234.1157 224.6676 L 234.0046 224.8916 L 186.3152 201.2429 Z"/>
  <path id="cut_face_28" d="M 213.3825 392.6847 L 212.9476 392.553 L 212.8751 392.7922 L 214.3107 393.2271 L 214.3832 392.9879 L 288.2196 415.3568 L 288.2252 415.4628 L 288.4748 415.4497 L 288.3963 413.9517 L 288.1466 413.9648 L 285.4857 363.2204 L 285.5801 363.1819 L 285.4855 362.9504 L 284.097 363.5179 L 284.1916 363.7493 Z"/>
  <path id="cut_face_29" d="M 285.3074 362.6012 L 260.7336 314.1672 L 260.9565 314.054 L 260.2778 312.7164 L 260.0549 312.8295 L 260.0916 312.9019 L 207.4047 361.7113 L 283.9699 362.5859 L 283.9671 362.8359 L 285.467 362.853 L 285.4698 362.603 Z"/>
  <path id="cut_face_30" d="M 288.8907 415.3206 L 343.5031 399.2962 L 343.5735 399.5361 L 345.0128 399.1138 L 344.9424 398.8739 L 344.7391 398.9335 L 307.6503 367.2631 L 307.8127 367.073 L 306.672 366.099 L 306.5096 366.2891 L 306.5941 366.3612 L 289.3181 414.1386 L 289.083 414.0536 L 288.573 415.4642 L 288.8081 415.5492 Z"/>
  <path id="cut_face_31" d="M 302.9931 348.3805 L 303.0199 348.7276 L 303.2692 348.7084 L 303.1536 347.2128 L 302.9043 347.2321 L 299.2547 300.019 L 299.3192 299.998 L 299.2418 299.7603 L 297.8156 300.225 L 297.893 300.4627 L 260.6687 312.5921 L 260.5171 312.4639 L 260.3556 312.6548 L 261.501 313.6234 L 261.6625 313.4325 Z"/>
  <path id="cut_face_32" d="M 307.2174 365.9078 L 306.7958 365.774 L 306.7201 366.0123 L 308.1498 366.4661 L 308.2254 366.2279 L 354.7192 380.9881 L 354.7699 381.1839 L 355.0119 381.1212 L 354.6357 379.6691 L 354.3937 379.7318 L 346.6641 349.8963 L 346.697 349.883 L 346.6029 349.6514 L 345.2131 350.2155 L 345.3071 350.4472 Z"/>
  <path id="cut_face_33" d="M 346.3942 349.3013 L 319.6094 303.7146 L 319.825 303.588 L 319.0651 302.2947 L 318.8495 302.4213 L 319.0015 302.6799 L 304.0798 347.3768 L 303.8426 347.2977 L 303.3676 348.7205 L 303.6048 348.7996 L 303.6339 348.7123 L 345.0882 349.2833 L 345.0847 349.5332 L 346.5846 349.5539 L 346.588 349.3039 Z"/>
  <path id="cut_face_34" d="M 455.9527 514.1763 L 455.9436 514.1733 L 455.8656 514.4108 L 457.2907 514.8789 L 457.3687 514.6414 L 519.9932 535.2109 L 492.565 415.369 L 492.6107 415.2455 L 492.3763 415.1586 L 491.8551 416.5652 L 492.0895 416.652 Z"/>
  <path id="cut_face_35" d="M 392.9025 414.4329 L 393.5315 414.6326 L 393.6072 414.3943 L 392.1775 413.9404 L 392.1019 414.1787 L 345.306 399.3226 L 345.2172 399.3951 L 345.0591 399.2015 L 343.8972 400.1502 L 344.0553 400.3439 L 300.4237 435.9723 L 299.6177 436.1601 L 299.6744 436.4035 L 301.1353 436.0633 L 301.0786 435.8198 Z"/>
  <path id="cut_face_36" d="M 420.0373 491.6492 L 491.0827 416.0284 L 491.2649 416.1996 L 492.292 415.1064 L 492.1098 414.9352 L 491.5222 415.5607 L 412.4784 446.476 L 419.8318 490.4209 L 419.5852 490.4621 L 419.8327 491.9416 L 420.0793 491.9003 Z"/>
  <path id="cut_face_37" d="M 359.9845 349.6595 L 355.5763 379.6681 L 355.329 379.6318 L 355.1109 381.1158 L 355.3583 381.1522 L 355.342 381.2628 L 392.677 413.1434 L 392.5146 413.3336 L 393.6554 414.3076 L 393.8177 414.1175 L 393.035 413.4492 L 360.433 350.525 L 360.6549 350.41 L 359.9649 349.0781 L 359.7429 349.1931 Z"/>
  <path id="cut_face_38" d="M 449.1759 259.9886 L 495.0054 331.2215 L 494.7952 331.3568 L 495.6068 332.6183 L 495.817 332.483 L 495.7249 332.3398 L 491.4415 210.3901 L 450.1905 258.798 L 450.0003 258.6358 L 449.0274 259.7775 L 449.2176 259.9397 Z"/>
  <path id="cut_face_39" d="M 208.9847 353.8515 L 260.5323 306.0977 L 237.8746 308.4031 L 237.8493 308.1543 L 236.357 308.3062 L 236.3823 308.5549 L 236.2579 308.5676 L 208.9773 353.8639 L 208.7631 353.735 L 207.9892 355.0199 L 208.2034 355.1489 Z"/>
  <path id="cut_face_40" d="M 215.3714 301.2101 L 215.3326 301.1973 L 215.4113 300.96 L 213.9875 300.4879 L 213.9088 300.7252 L 157.2904 281.9537 L 157.0055 281.5432 L 156.8001 281.6858 L 157.6556 282.918 L 157.8609 282.7754 L 207.7032 354.5695 L 207.6484 354.951 L 207.8958 354.9866 L 208.1092 353.5019 L 207.8617 353.4663 Z"/>
  <path id="cut_face_41" d="M 236.4268 307.8721 L 236.2075 307.9922 L 236.3275 308.2115 L 237.6434 307.4913 L 237.5234 307.272 L 257.9726 296.0806 L 257.9598 296.0432 L 258.1964 295.9623 L 257.7111 294.5429 L 257.4746 294.6238 L 243.9962 255.2003 L 244.1085 254.4191 L 243.861 254.3835 L 243.6476 255.8683 L 243.8951 255.9038 Z"/>
  <path id="cut_face_42" d="M 243.4315 254.4237 L 170.6685 260.1932 L 170.6487 259.944 L 169.1534 260.0625 L 169.1732 260.3117 L 169.5145 260.2847 L 214.4971 299.6974 L 214.3323 299.8854 L 215.4605 300.8739 L 215.6253 300.6859 L 215.5886 300.6537 L 242.7795 255.5062 L 242.9937 255.6352 L 243.7676 254.3502 L 243.5534 254.2213 Z"/>
  <path id="cut_face_43" d="M 99.2002 113.7308 L 90.7914 93.4549 L 91.0224 93.3591 L 90.4477 91.9735 L 90.2168 92.0693 L 90.2075 92.0469 L 71.788 97.5682 L 71.7162 97.3288 L 70.2794 97.7595 L 70.3512 97.9989 L 70.6797 97.9004 L 98.297 113.2295 L 98.1757 113.4481 L 99.4872 114.1761 L 99.6085 113.9575 Z"/>
  <path id="cut_face_44" d="M 200.0956 462.4861 L 271.8283 443.5883 L 271.892 443.8301 L 273.3425 443.448 L 273.2788 443.2062 L 273.0511 443.2662 L 213.8218 394.0307 L 213.9816 393.8384 L 212.8281 392.8796 L 212.6683 393.0718 L 212.8047 393.1852 L 200.3403 461.1519 L 200.0944 461.1068 L 199.8238 462.5822 L 200.0697 462.6273 Z"/>
  <path id="cut_face_45" d="M 184.2591 393.9186 L 184.4556 393.5788 L 184.2392 393.4537 L 183.4883 394.7523 L 183.7048 394.8774 L 139.6395 471.0905 L 139.3784 471.1275 L 139.4135 471.375 L 140.8987 471.1647 L 140.8636 470.9172 L 199.4762 462.6185 L 199.4805 462.6381 L 199.7246 462.5841 L 199.4002 461.1196 L 199.1562 461.1736 Z"/>
  <path id="cut_face_46" d="M 213.8599 489.7611 L 213.402 489.7511 L 213.3965 490.001 L 214.8962 490.0339 L 214.9016 489.7839 L 250.8913 490.572 L 250.9291 490.4924 L 251.1549 490.5996 L 251.7986 489.2447 L 251.5727 489.1375 L 272.9107 444.2194 L 273.539 443.7349 L 273.3863 443.5369 L 272.1985 444.453 L 272.3512 444.651 Z"/>
  <path id="cut_face_47" d="M 198.9802 524.6486 L 246.0243 505.9123 L 246.1168 506.1445 L 247.5103 505.5895 L 247.4178 505.3573 L 247.101 505.4835 L 214.6414 490.9393 L 214.7436 490.7111 L 213.3747 490.0978 L 213.2725 490.3259 L 213.2786 490.3287 L 199.4249 523.5813 L 199.1941 523.4852 L 198.6172 524.8698 L 198.848 524.9659 Z"/>
  <path id="cut_face_48" d="M 290.5757 456.2161 L 290.5496 456.0789 L 290.304 456.1257 L 290.5849 457.5992 L 290.8305 457.5523 L 300.2034 506.7137 L 300.06 506.8423 L 300.2269 507.0285 L 301.3437 506.0271 L 301.1768 505.841 L 342.3051 468.965 L 342.5215 469.0183 L 342.5813 468.7756 L 341.1249 468.4166 L 341.0651 468.6594 Z"/>
  <path id="cut_face_49" d="M 342.8721 468.5593 L 393.2198 453.1831 L 393.2928 453.4222 L 394.7274 452.9841 L 394.6544 452.745 L 393.888 452.979 L 301.1131 437.0036 L 301.1555 436.7572 L 299.6773 436.5027 L 299.6349 436.749 L 300.4164 436.8836 L 341.5709 467.5885 L 341.4214 467.7889 L 342.6237 468.6859 L 342.7732 468.4855 Z"/>
  <path id="cut_face_50" d="M 407.4356 563.4836 L 407.3424 563.724 L 407.5755 563.8144 L 408.1179 562.4159 L 407.8848 562.3255 L 432.1531 499.753 L 366.2167 495.4746 L 366.0977 495.2783 L 365.8839 495.4079 L 366.6614 496.6907 L 366.8752 496.5611 Z"/>
  <path id="cut_face_51" d="M 365.614 495.961 L 339.6243 542.7199 L 376.2513 573.5375 L 376.0904 573.7288 L 377.2381 574.6945 L 377.3991 574.5032 L 377.0866 574.2403 L 365.7607 496.9618 L 366.0081 496.9256 L 365.7906 495.4414 L 365.5432 495.4777 Z"/>
  <path id="cut_face_52" d="M 419.3996 491.9068 L 419.529 492.1109 L 419.7401 491.977 L 418.9368 490.7102 L 418.7257 490.8441 L 394.908 453.2856 L 394.9349 453.2632 L 394.7746 453.0713 L 393.6233 454.0327 L 393.7835 454.2246 L 353.7591 487.6476 Z"/>
  <path id="cut_face_53" d="M 300.4932 507.304 L 326.8885 534.641 L 326.7086 534.8146 L 327.7505 535.8937 L 327.9304 535.7201 L 327.8696 535.6571 L 353.8374 488.9378 L 301.7768 506.862 L 301.6954 506.6257 L 300.2772 507.114 L 300.3585 507.3504 Z"/>
  <path id="cut_face_54" d="M 111.7938 360.8719 L 111.7718 360.7683 L 111.5273 360.8202 L 111.8392 362.2875 L 112.0837 362.2355 L 120.8851 403.6393 L 120.7919 403.6987 L 120.9263 403.9095 L 122.1911 403.1032 L 122.0567 402.8924 L 174.4459 369.4943 L 174.8722 369.553 L 174.9063 369.3053 L 173.4203 369.1008 L 173.3862 369.3485 Z"/>
  <path id="cut_face_55" d="M 174.792 368.8335 L 156.7734 283.2444 L 157.0181 283.1929 L 156.7091 281.7251 L 156.4644 281.7766 L 156.5353 282.1134 L 121.0737 335.1892 L 120.8658 335.0504 L 120.0325 336.2976 L 120.2404 336.4365 L 120.2479 336.4252 L 173.7772 368.2306 L 173.6495 368.4455 L 174.9391 369.2117 L 175.0668 368.9968 Z"/>
  <path id="cut_face_56" d="M 68.5397 276.7949 L 39.133 276.3454 L 39.1368 276.0955 L 37.637 276.0725 L 37.6332 276.3225 L 37.8845 276.3264 L 91.7246 350.1226 L 91.5226 350.2699 L 92.4067 351.4817 L 92.6087 351.3344 L 91.8521 350.2974 L 69.0143 278.2914 L 69.2526 278.2158 L 68.7991 276.786 L 68.5608 276.8616 Z"/>
  <path id="cut_face_57" d="M 119.7461 335.9476 L 119.6952 336.2128 L 119.9407 336.2599 L 120.2235 334.7868 L 119.978 334.7397 L 132.0622 271.7906 L 132.1401 271.7845 L 132.1204 271.5352 L 130.625 271.6535 L 130.6447 271.9027 L 69.2319 276.7583 L 69.076 276.5756 L 68.8858 276.7379 L 69.8596 277.8789 L 70.0497 277.7166 Z"/>
  <path id="cut_face_58" d="M 153.1752 567.1464 L 232.6861 584.5803 L 211.8712 547.8578 L 212.0887 547.7345 L 211.349 546.4296 L 211.1315 546.5528 L 211.1118 546.518 L 154.4464 566.6937 L 154.3626 566.4582 L 152.9495 566.9614 L 153.0333 567.1969 Z"/>
  <path id="cut_face_59" d="M 198.2706 524.991 L 198.2699 524.8517 L 198.5199 524.8506 L 198.513 523.3506 L 198.263 523.3517 L 198.1003 488.0062 L 198.4393 487.4122 L 198.2221 487.2883 L 197.4788 488.5911 L 197.6959 488.715 L 153.7217 565.7834 L 152.7295 566.692 L 152.8983 566.8764 L 154.0046 565.8634 L 153.8358 565.679 Z"/>
  <path id="cut_face_60" d="M 125.5802 542.4105 L 196.8041 487.9357 L 196.956 488.1343 L 198.1475 487.223 L 197.9956 487.0245 L 197.7891 487.1824 L 140.7938 472.0994 L 140.8577 471.8577 L 139.4076 471.474 L 139.3437 471.7157 L 139.3602 471.72 Z"/>
  <path id="cut_face_61" d="M 111.8809 446.7884 L 112.0305 447.492 L 112.275 447.44 L 111.9632 445.9728 L 111.7186 446.0248 L 102.9017 404.5474 L 102.935 404.5356 L 102.8513 404.3 L 101.4378 404.8021 L 101.5215 405.0377 L 81.7669 412.0551 L 81.6907 411.9673 L 81.5018 412.131 L 82.4845 413.2644 L 82.6734 413.1006 Z"/>
  <path id="cut_face_62" d="M 81.5977 413.546 L 82.2734 526.7691 L 82.0234 526.7706 L 82.0324 528.2706 L 82.2824 528.2691 L 82.2689 526.0084 L 95.7333 456.9371 L 81.6424 413.6835 L 81.8801 413.6061 L 81.4155 412.1798 L 81.1778 412.2573 Z"/>
  <path id="cut_face_63" d="M 79.9359 402.2729 L 79.8619 402.5756 L 80.1048 402.6349 L 80.4608 401.1778 L 80.218 401.1184 L 92.2675 351.8031 L 92.211 351.7692 L 92.3398 351.5549 L 91.0541 350.7822 L 90.9253 350.9965 L 13.1757 304.2707 L 12.6744 303.5349 L 12.4678 303.6756 L 13.3123 304.9153 L 13.5189 304.7746 Z"/>
  <path id="cut_face_64" d="M 102.8827 403.954 L 110.8995 362.2471 L 111.145 362.2943 L 111.4281 360.8212 L 111.1826 360.774 L 111.0232 361.6034 L 81.2898 401.6221 L 81.0891 401.473 L 80.1946 402.6771 L 80.3952 402.8262 L 80.5224 402.655 L 101.3543 403.8652 L 101.3398 404.1148 L 102.8373 404.2018 L 102.8518 403.9522 Z"/>
  <path id="cut_face_65" d="M 400.0308 354.4155 L 398.8653 316.0402 L 399.1152 316.0326 L 399.0697 314.5333 L 398.8198 314.5409 L 398.8249 314.7077 L 367.0128 332.9497 L 366.8884 332.7328 L 365.5872 333.479 L 365.7115 333.6959 L 365.8616 333.6098 L 398.93 353.7452 L 398.8 353.9588 L 400.0812 354.7389 L 400.2112 354.5254 Z"/>
  <path id="cut_face_66" d="M 360.6966 349.2348 L 360.2019 348.8237 L 360.0421 349.016 L 361.1958 349.9747 L 361.3555 349.7824 L 416.0879 395.2692 L 416.358 395.9486 L 416.5903 395.8563 L 416.0361 394.4624 L 415.8038 394.5548 L 400.1156 355.095 L 400.0107 355.0794 L 400.0474 354.8321 L 398.5637 354.6116 L 398.527 354.8589 Z"/>
  <path id="cut_face_67" d="M 415.8195 350.2493 L 422.2565 284.2352 L 422.6381 283.734 L 422.4392 283.5825 L 421.5305 284.7759 L 421.7294 284.9274 L 399.3518 314.3156 L 399.3935 314.4066 L 399.1663 314.5107 L 399.7912 315.8743 L 400.0184 315.7702 Z"/>
  <path id="cut_face_68" d="M 417.8554 352.0335 L 416.9693 394.3442 L 416.7193 394.339 L 416.6879 395.8386 L 416.9379 395.8439 L 416.9405 395.7193 L 496.0064 364.7954 L 419.2983 352.2691 L 419.3386 352.0224 L 417.8582 351.7807 L 417.8179 352.0274 Z"/>
  <path id="cut_face_69" d="M 495.1371 332.7177 L 495.3946 332.8938 L 495.5357 332.6874 L 494.2974 331.8408 L 494.1563 332.0471 L 424.4316 284.3729 L 417.8944 351.4147 L 417.7957 351.4386 L 417.8545 351.6816 L 419.3124 351.3287 L 419.2536 351.0857 Z"/>
  <path id="cut_face_70" d="M 64.8461 263.5545 L 38.4998 245.8764 L 38.6391 245.6688 L 37.3935 244.833 L 37.2542 245.0406 L 38.0913 245.6023 L 45.1426 256.1911 L 44.9345 256.3296 L 45.7659 257.5781 L 45.974 257.4396 L 46.0639 257.5746 L 64.8523 263.5565 L 64.7764 263.7947 L 66.2057 264.2498 L 66.2816 264.0116 Z"/>
  <path id="cut_face_71" d="M 45.1089 266.5261 L 38.1529 275.4895 L 37.5251 275.7433 L 37.6188 275.975 L 39.0095 275.413 L 38.9159 275.1812 L 64.7792 264.7288 L 66.2177 264.5973 L 66.195 264.3484 L 64.7012 264.4849 L 64.724 264.7338 Z"/>
  <path id="cut_face_72" d="M 32.8933 249.4876 L 38.2253 267.2737 L 45.5416 257.8461 L 45.5581 257.8569 L 45.6959 257.6484 L 44.4445 256.8214 L 44.3066 257.03 Z"/>
  <path id="cut_face_73" d="M 365.7154 332.7374 L 365.3229 333.253 L 365.5218 333.4044 L 366.4305 332.211 L 366.2316 332.0596 L 388.5811 302.7081 L 388.5473 302.6663 L 388.7417 302.5091 L 387.7986 301.3427 L 387.6042 301.4999 L 371.2789 281.3102 Z"/>
  <path id="cut_face_74" d="M 368.5316 282.4437 L 368.686 282.3817 L 368.5929 282.1497 L 367.2008 282.7084 L 367.2939 282.9404 L 319.4454 302.1451 L 319.2883 302.028 L 319.1389 302.2285 L 320.3419 303.1245 L 320.4912 302.9241 L 362.8987 334.5128 Z"/>
  <path id="cut_face_75" d="M 358.5938 248.9675 L 316.631 280.2608 L 316.4815 280.0603 L 315.279 280.9571 L 315.4285 281.1575 L 315.8147 280.8695 L 367.0796 281.7756 L 367.0752 282.0256 L 368.5749 282.0521 L 368.5794 281.8022 L 368.4867 281.8005 L 358.9957 250.3016 L 359.2351 250.2294 L 358.8023 248.7932 L 358.563 248.8653 Z"/>
  <path id="cut_face_76" d="M 381.153 275.2189 L 381.2491 275.1983 L 381.3017 275.4427 L 382.7682 275.1276 L 382.7157 274.8831 L 421.3556 266.5801 L 422.081 266.7859 L 422.1492 266.5454 L 420.7061 266.136 L 420.6379 266.3765 L 359.4363 249.014 L 359.0822 248.5868 L 358.8897 248.7463 L 359.8469 249.9013 L 360.0394 249.7417 Z"/>
  <path id="cut_face_77" d="M 389.0509 302.3281 L 420.9482 284.0373 L 421.0726 284.2541 L 422.3738 283.508 L 422.2495 283.2911 L 421.8798 283.5031 L 382.7299 276.0674 L 382.7765 275.8217 L 381.3029 275.5419 L 381.2562 275.7875 L 381.4101 275.8167 L 388.6545 300.9527 L 388.4143 301.0219 L 388.8297 302.4633 L 389.0699 302.394 Z"/>
  <path id="cut_face_78" d="M 467.981 196.8522 L 436.9732 151.4459 L 437.1796 151.3049 L 436.3337 150.0662 L 436.1272 150.2072 L 436.2348 150.3647 L 423.8738 177.1295 L 423.6468 177.0246 L 423.0179 178.3864 L 423.2449 178.4912 L 423.2495 178.4813 L 467.1344 196.5045 L 467.0395 196.7358 L 468.427 197.3056 L 468.522 197.0744 Z"/>
  <path id="cut_face_79" d="M 419.6024 198.1248 L 419.5411 197.9964 L 419.3155 198.1042 L 419.962 199.4577 L 420.1876 199.3499 L 448.8179 259.2886 L 448.7023 259.654 L 448.9406 259.7294 L 449.393 258.2993 L 449.1547 258.2239 L 468.3159 197.6539 L 468.4107 197.653 L 468.4083 197.403 L 466.9084 197.4175 L 466.9108 197.6675 Z"/>
  <path id="cut_face_80" d="M 335.1783 160.6145 L 335.0014 160.296 L 334.7829 160.4173 L 335.511 161.7288 L 335.7295 161.6074 L 370.7958 224.7692 L 370.7165 224.8719 L 370.9144 225.0247 L 371.8312 223.8375 L 371.6333 223.6847 L 404.3434 181.3283 L 404.4524 181.3609 L 404.5241 181.1214 L 403.0872 180.6911 L 403.0154 180.9306 Z"/>
  <path id="cut_face_81" d="M 404.5428 180.6866 L 407.1127 136.7944 L 407.3623 136.809 L 407.45 135.3115 L 407.2004 135.2969 L 407.1996 135.3099 L 350.0888 134.8572 L 350.0908 134.6072 L 348.5909 134.5953 L 348.5889 134.8453 L 349.0429 134.8489 L 403.5735 179.886 L 403.4143 180.0788 L 404.5708 181.034 L 404.73 180.8412 Z"/>
  <path id="cut_face_82" d="M 371.2063 225.2586 L 421.1807 265.3239 L 421.0243 265.519 L 422.1946 266.4573 L 422.351 266.2622 L 422.1144 266.0725 L 419.0389 199.6383 L 419.2887 199.6267 L 419.2193 198.1283 L 418.9696 198.1399 L 418.9768 198.296 L 372.4085 224.5801 L 372.2856 224.3624 L 370.9793 225.0997 L 371.1022 225.3174 Z"/>
  <path id="cut_face_83" d="M 422.7072 177.2851 L 422.6715 178.3552 L 422.9214 178.3635 L 422.9713 176.8644 L 422.7215 176.856 L 423.7133 147.0837 L 423.6186 147.0154 L 423.7648 146.8126 L 422.548 145.9355 L 422.4018 146.1383 L 407.9678 135.733 L 407.7838 135.214 L 407.5481 135.2976 L 408.0496 136.7113 L 408.2852 136.6277 Z"/>
  <path id="cut_face_84" d="M 186.3754 166.5032 L 186.4033 166.5812 L 186.6387 166.497 L 186.1338 165.0845 L 185.8984 165.1687 L 168.4384 116.322 L 168.5646 116.1593 L 168.3671 116.0061 L 167.4475 117.1911 L 167.645 117.3444 L 126.6668 170.1549 Z"/>
  <path id="cut_face_85" d="M 88.948 163.4417 L 89.5452 163.3144 L 89.4931 163.0699 L 88.026 163.3825 L 88.0781 163.627 L 24.2045 177.2405 L 34.7656 216.5522 L 34.8436 216.4758 L 35.0186 216.6543 L 36.0898 215.6043 L 35.9148 215.4258 Z"/>
  <path id="cut_face_86" d="M 65.8888 111.0838 L 25.3096 149.3733 L 25.1381 149.1914 L 24.0471 150.2209 L 24.2186 150.4027 L 24.3922 150.2389 L 88.0659 162.4428 L 88.0189 162.6883 L 89.492 162.9707 L 89.5391 162.7252 L 89.3103 162.6813 L 66.4675 112.3586 L 66.6952 112.2553 L 66.0752 110.8894 L 65.8475 110.9927 Z"/>
  <path id="cut_face_87" d="M 107.7887 148.9146 L 107.9232 149.4728 L 108.1662 149.4142 L 107.8149 147.9559 L 107.5719 148.0145 L 99.504 114.5271 L 99.4304 114.5192 L 99.4572 114.2706 L 97.9658 114.1099 L 97.9391 114.3585 L 66.6977 110.9914 L 66.3251 110.6476 L 66.1555 110.8313 L 67.2578 111.8486 L 67.4274 111.6649 Z"/>
  <path id="cut_face_88" d="M 167.6239 116.0251 L 115.8643 114.0829 L 115.8737 113.833 L 114.3747 113.7768 L 114.3653 114.0266 L 114.3358 114.0255 L 108.7554 147.971 L 108.5087 147.9304 L 108.2653 149.4106 L 108.512 149.4511 L 108.5558 149.1847 L 166.872 116.4472 L 166.9944 116.6652 L 168.3024 115.9309 L 168.18 115.7129 Z"/>
  <path id="cut_face_89" d="M 5.0332 529.2718 L 35.3438 423.0003 L 35.5843 423.0689 L 35.9957 421.6264 L 35.7553 421.5579 L 35.8072 421.3758 L 12.4273 305.234 L 12.6724 305.1846 L 12.3764 303.7141 L 12.1313 303.7635 L 12.2918 304.5607 Z"/>
  <path id="cut_face_90" d="M 81.7797 528.5623 L 81.7055 528.3894 L 81.9353 528.2908 L 81.3438 526.9124 L 81.1141 527.011 L 36.5245 423.0927 L 36.3427 421.6039 L 36.0946 421.6342 L 36.2764 423.1231 L 36.5245 423.0928 L 50.0396 533.7675 Z"/>
  <path id="cut_face_91" d="M 205.5997 5.1494 L 78.8462 34.1399 L 78.8626 34.1512 L 78.721 34.3572 L 79.9573 35.2066 L 80.0989 35.0005 L 121.5957 63.5092 L 121.6592 63.4651 L 121.8018 63.6704 L 123.0337 62.8146 L 122.891 62.6093 Z"/>
  <path id="cut_face_92" d="M 122.2087 63.9395 L 163.7486 93.2837 L 163.6044 93.4879 L 164.8295 94.3534 L 164.9738 94.1492 L 165.0144 94.1779 L 220.994 43.5331 L 221.1617 43.7185 L 222.2741 42.7121 L 222.1063 42.5268 L 221.6053 42.98 L 123.3604 63.6966 L 123.3088 63.452 L 121.8411 63.7615 L 121.8927 64.0061 Z"/>
  <path id="cut_face_93" d="M 106.309 78.0909 L 79.248 35.8243 L 79.4585 35.6895 L 78.6497 34.4262 L 78.4392 34.561 L 78.9468 35.3538 L 86.3616 82.5563 L 86.1147 82.5951 L 86.3474 84.0769 L 86.5944 84.0381 L 86.5888 84.0022 L 104.9502 78.4983 L 105.022 78.7377 L 106.4588 78.307 L 106.387 78.0676 Z"/>
  <path id="cut_face_94" d="M 90.7246 91.759 L 90.7055 91.7401 L 90.53 91.9181 L 91.5981 92.9712 L 91.7737 92.7932 L 107.4685 108.2672 L 106.4657 78.7518 L 106.6648 78.5872 L 106.5056 78.3945 L 105.3492 79.35 L 105.5085 79.5427 Z"/>
  <path id="cut_face_95" d="M 113.3443 83.4301 L 114.3629 113.41 L 114.2702 113.4451 L 114.3587 113.6789 L 115.7616 113.1479 L 115.6731 112.9141 L 164.1581 94.5618 L 164.736 94.6883 L 164.7895 94.4441 L 163.3243 94.1231 L 163.2708 94.3674 Z"/>
  <path id="cut_face_96" d="M 103.7132 225.5594 L 104.6865 225.2757 L 104.6165 225.0357 L 103.1764 225.4555 L 103.2464 225.6955 L 38.2467 244.6448 L 37.479 244.4959 L 37.4314 244.7413 L 38.9039 245.027 L 38.9515 244.7816 L 71.7093 251.1372 L 71.8143 251.0532 L 71.9704 251.2485 L 73.1421 250.312 L 72.9861 250.1167 Z"/>
  <path id="cut_face_97" d="M 72.6272 251.424 L 130.7874 270.727 L 130.7087 270.9643 L 132.1323 271.4368 L 132.2111 271.1995 L 131.788 271.0591 L 113.252 241.5242 L 113.4637 241.3913 L 112.6664 240.1208 L 112.4546 240.2537 L 112.4212 240.2004 L 73.5272 251.1702 L 73.4594 250.9295 L 72.0157 251.3367 L 72.0836 251.5773 Z"/>
  <path id="cut_face_98" d="M 112.952 239.8969 L 112.8817 239.8477 L 112.7382 240.0524 L 113.9669 240.9129 L 114.1103 240.7082 L 142.9557 260.9108 L 159.8937 202.801 Z"/>
  <path id="cut_face_99" d="M 166.1528 185.1901 L 106.6938 188.8265 L 106.6629 188.744 L 106.4288 188.8317 L 106.9552 190.2363 L 107.1893 190.1486 L 119.228 222.2726 Z"/>
  <path id="cut_face_100" d="M 104.6177 224.6863 L 106.0199 190.3359 L 106.2697 190.3461 L 106.3309 188.8474 L 106.0811 188.8372 L 106.0756 188.9712 L 36.5596 216.4192 L 36.4678 216.1866 L 35.0726 216.7375 L 35.1644 216.9701 L 35.8585 216.696 L 103.1471 224.5154 L 103.1182 224.7637 L 104.6082 224.9369 L 104.637 224.6885 Z"/>
</g>
<g id="score" fill="none" stroke="#0000ff" stroke-width="0.1">
  <path id="score_hinge_1" d="M 211.2257 546.2121 L 212.4146 547.1267"/>
  <path id="score_hinge_1_b" d="M 211.2257 546.2121 L 211.9654 547.517"/>
  <path id="score_hinge_2" d="M 246.2463 573.1555 L 246.9011 571.806"/>
  <path id="score_hinge_2_b" d="M 246.2463 573.1555 L 247.3743 572.1669"/>
  <path id="score_hinge_3" d="M 336.8268 109.9095 L 337.8574 108.8195"/>
  <path id="score_hinge_3_b" d="M 336.8268 109.9095 L 338.2001 109.306"/>
  <path id="score_hinge_5" d="M 256.651 46.9688 L 257.8309 47.895"/>
  <path id="score_hinge_5_b" d="M 256.651 46.9688 L 257.3779 48.2809"/>
  <path id="score_hinge_6" d="M 334.6615 160.1988 L 334.8224 161.6901"/>
  <path id="score_hinge_6_b" d="M 334.6615 160.1988 L 335.3896 161.5102"/>
  <path id="score_hinge_7" d="M 260.8902 218.8667 L 262.0642 217.9331"/>
  <path id="score_hinge_7_b" d="M 260.8902 218.8667 L 261.6088 217.5501"/>
  <path id="score_hinge_8" d="M 342.6381 234.1425 L 341.1636 233.867"/>
  <path id="score_hinge_8_b" d="M 342.6381 234.1425 L 341.1725 234.462"/>
  <path id="score_hinge_9" d="M 306.045 136.1311 L 304.551 135.998"/>
  <path id="score_hinge_9_b" d="M 306.045 136.1311 L 304.6168 136.5894"/>
  <path id="score_hinge_10" d="M 228.6242 129.2326 L 229.1079 127.8128"/>
  <path id="score_hinge_10_b" d="M 228.6242 129.2326 L 228.5178 127.7364"/>
  <path id="score_hinge_11" d="M 235.6835 225.4451 L 234.7045 224.3086"/>
  <path id="score_hinge_11_b" d="M 235.6835 225.4451 L 234.3397 224.7787"/>
  <path id="score_hinge_12" d="M 232.034 159.8786 L 232.1173 161.3763"/>
  <path id="score_hinge_12_b" d="M 232.034 159.8786 L 232.6931 161.226"/>
  <path id="score_hinge_14" d="M 455.628 514.3328 L 456.759 515.3182"/>
  <path id="score_hinge_14_b" d="M 455.628 514.3328 L 457.0531 514.8009"/>
  <path id="score_hinge_15" d="M 407.4851 564.0475 L 408.5286 562.9699"/>
  <path id="score_hinge_15_b" d="M 407.4851 564.0475 L 408.0275 562.649"/>
  <path id="score_hinge_17" d="M 403.5694 93.8041 L 402.1113 94.1559"/>
  <path id="score_hinge_17_b" d="M 403.5694 93.8041 L 402.3628 94.6952"/>
  <path id="score_hinge_18" d="M 411.1883 77.2301 L 410.5618 78.5929"/>
  <path id="score_hinge_18_b" d="M 411.1883 77.2301 L 411.141 78.7293"/>
  <path id="score_hinge_19" d="M 348.3409 134.5934 L 349.7274 134.0211"/>
  <path id="score_hinge_19_b" d="M 348.3409 134.5934 L 349.8408 134.6052"/>
  <path id="score_hinge_20" d="M 402.9944 112.0363 L 403.0417 110.5371"/>
  <path id="score_hinge_20_b" d="M 402.9944 112.0363 L 403.6209 110.6734"/>
  <path id="score_hinge_22" d="M 290.2572 455.8801 L 289.9431 457.3469"/>
  <path id="score_hinge_22_b" d="M 290.2572 455.8801 L 290.5381 457.3536"/>
  <path id="score_hinge_23" d="M 251.0477 490.8255 L 252.1675 489.8274"/>
  <path id="score_hinge_23_b" d="M 251.0477 490.8255 L 251.6913 489.4706"/>
  <path id="score_hinge_24" d="M 247.7426 505.497 L 246.6745 506.5502"/>
  <path id="score_hinge_24_b" d="M 247.7426 505.497 L 246.3491 506.052"/>
  <path id="score_hinge_25" d="M 258.5094 541.8781 L 258.0837 540.4398"/>
  <path id="score_hinge_25_b" d="M 258.5094 541.8781 L 258.6765 540.3875"/>
  <path id="score_hinge_26" d="M 291.0063 520.3095 L 289.7565 521.139"/>
  <path id="score_hinge_26_b" d="M 291.0063 520.3095 L 290.1774 521.5597"/>
  <path id="score_hinge_27" d="M 23.8652 150.3925 L 24.4701 149.0198"/>
  <path id="score_hinge_27_b" d="M 23.8652 150.3925 L 24.9562 149.363"/>
  <path id="score_hinge_28" d="M 47.2103 97.416 L 46.7605 95.985"/>
  <path id="score_hinge_28_b" d="M 47.2103 97.416 L 47.3523 95.9228"/>
  <path id="score_hinge_30" d="M 410.6133 95.4623 L 412.1073 95.3281"/>
  <path id="score_hinge_30_b" d="M 410.6133 95.4623 L 412.0419 95.9196"/>
  <path id="score_hinge_33" d="M 59.651 41.2191 L 59.3268 42.6837"/>
  <path id="score_hinge_33_b" d="M 59.651 41.2191 L 59.9217 42.6945"/>
  <path id="score_hinge_35" d="M 70.0399 97.8312 L 71.1962 96.8758"/>
  <path id="score_hinge_35_b" d="M 70.0399 97.8312 L 71.4768 97.4005"/>
  <path id="score_hinge_36" d="M 86.3862 84.3239 L 85.5956 83.0492"/>
  <path id="score_hinge_36_b" d="M 86.3862 84.3239 L 86.1535 82.8421"/>
  <path id="score_hinge_37" d="M 329.8333 560.1261 L 328.3512 560.3571"/>
  <path id="score_hinge_37_b" d="M 329.8333 560.1261 L 328.5576 560.9152"/>
  <path id="score_hinge_38" d="M 269.4529 552.8165 L 270.942 552.9968"/>
  <path id="score_hinge_38_b" d="M 269.4529 552.8165 L 270.895 552.4036"/>
  <path id="score_hinge_39" d="M 327.9242 536.0736 L 326.5447 535.4845"/>
  <path id="score_hinge_39_b" d="M 327.9242 536.0736 L 326.8823 534.9945"/>
  <path id="score_hinge_41" d="M 377.4294 574.8555 L 375.9965 574.412"/>
  <path id="score_hinge_41_b" d="M 377.4294 574.8555 L 376.2817 573.8898"/>
  <path id="score_hinge_42" d="M 112.327 447.6845 L 112.6102 446.2115"/>
  <path id="score_hinge_42_b" d="M 112.327 447.6845 L 112.0151 446.2173"/>
  <path id="score_hinge_43" d="M 184.3643 393.2373 L 183.1676 394.1417"/>
  <path id="score_hinge_43_b" d="M 184.3643 393.2373 L 183.6135 394.5358"/>
  <path id="score_hinge_44" d="M 120.7155 404.0439 L 122.1943 403.7928"/>
  <path id="score_hinge_44_b" d="M 120.7155 404.0439 L 121.9803 403.2376"/>
  <path id="score_hinge_45" d="M 258.2773 296.1988 L 258.3821 294.7025"/>
  <path id="score_hinge_45_b" d="M 258.2773 296.1988 L 257.792 294.7795"/>
  <path id="score_hinge_46" d="M 299.4795 299.6828 L 297.9848 299.5564"/>
  <path id="score_hinge_46_b" d="M 299.4795 299.6828 L 298.0533 300.1476"/>
  <path id="score_hinge_47" d="M 261.3832 251.8544 L 262.3177 253.0276"/>
  <path id="score_hinge_47_b" d="M 261.3832 251.8544 L 262.7004 252.5719"/>
  <path id="score_hinge_48" d="M 315.0786 281.1065 L 315.8378 279.8128"/>
  <path id="score_hinge_48_b" d="M 315.0786 281.1065 L 316.2811 280.2098"/>
  <path id="score_hinge_50" d="M 437.2472 118.2052 L 437.1973 119.7043"/>
  <path id="score_hinge_50_b" d="M 437.2472 118.2052 L 436.6183 119.567"/>
  <path id="score_hinge_51" d="M 436.1927 149.8597 L 437.4537 150.672"/>
  <path id="score_hinge_51_b" d="M 436.1927 149.8597 L 437.0386 151.0984"/>
  <path id="score_hinge_52" d="M 423.9676 146.9588 L 423.1876 145.6776"/>
  <path id="score_hinge_52_b" d="M 423.9676 146.9588 L 422.7508 146.0817"/>
  <path id="score_hinge_53" d="M 189.7531 112.7381 L 191.134 113.324"/>
  <path id="score_hinge_53_b" d="M 189.7531 112.7381 L 190.7975 113.8148"/>
  <path id="score_hinge_54" d="M 222.4594 42.5444 L 221.8259 43.9041"/>
  <path id="score_hinge_54_b" d="M 222.4594 42.5444 L 221.3471 43.5508"/>
  <path id="score_hinge_55" d="M 186.7229 166.7324 L 186.8069 165.2348"/>
  <path id="score_hinge_55_b" d="M 186.7229 166.7324 L 186.218 165.3199"/>
  <path id="score_hinge_56" d="M 168.9042 260.0823 L 170.2357 259.3916"/>
  <path id="score_hinge_56_b" d="M 168.9042 260.0823 L 170.3995 259.9637"/>
  <path id="score_hinge_58" d="M 212.6359 392.7198 L 214.0714 393.1547"/>
  <path id="score_hinge_58_b" d="M 212.6359 392.7198 L 213.7894 393.6786"/>
  <path id="score_hinge_59" d="M 288.4879 415.6993 L 288.4094 414.2014"/>
  <path id="score_hinge_59_b" d="M 288.4879 415.6993 L 288.998 414.2887"/>
  <path id="score_hinge_60" d="M 285.717 362.8559 L 284.3284 363.4233"/>
  <path id="score_hinge_60_b" d="M 285.717 362.8559 L 284.217 362.8387"/>
  <path id="score_hinge_61" d="M 260.1647 312.4934 L 260.8434 313.8311"/>
  <path id="score_hinge_61_b" d="M 260.1647 312.4934 L 261.3101 313.4619"/>
  <path id="score_hinge_63" d="M 345.2527 399.0434 L 343.8134 399.4657"/>
  <path id="score_hinge_63_b" d="M 345.2527 399.0434 L 344.0908 399.9921"/>
  <path id="score_hinge_64" d="M 306.4818 365.9366 L 307.6225 366.9107"/>
  <path id="score_hinge_64_b" d="M 306.4818 365.9366 L 307.9115 366.3905"/>
  <path id="score_hinge_65" d="M 303.2885 348.9576 L 303.1729 347.4621"/>
  <path id="score_hinge_65_b" d="M 303.2885 348.9576 L 303.7635 347.5348"/>
  <path id="score_hinge_66" d="M 355.0746 381.3632 L 354.6984 379.9111"/>
  <path id="score_hinge_66_b" d="M 355.0746 381.3632 L 355.2926 379.8791"/>
  <path id="score_hinge_67" d="M 346.8346 349.5573 L 345.4447 350.1215"/>
  <path id="score_hinge_67_b" d="M 346.8346 349.5573 L 345.3347 349.5367"/>
  <path id="score_hinge_68" d="M 318.9384 302.0791 L 319.6983 303.3724"/>
  <path id="score_hinge_68_b" d="M 318.9384 302.0791 L 320.1414 302.9752"/>
  <path id="score_hinge_70" d="M 492.4632 414.9242 L 491.942 416.3307"/>
  <path id="score_hinge_70_b" d="M 492.4632 414.9242 L 491.4361 416.0174"/>
  <path id="score_hinge_71" d="M 393.8455 414.47 L 392.4158 414.0161"/>
  <path id="score_hinge_71_b" d="M 393.8455 414.47 L 392.7048 413.4959"/>
  <path id="score_hinge_72" d="M 299.4309 436.4602 L 300.8918 436.12"/>
  <path id="score_hinge_72_b" d="M 299.4309 436.4602 L 300.9092 436.7148"/>
  <path id="score_hinge_74" d="M 419.874 492.1881 L 419.6264 490.7087"/>
  <path id="score_hinge_74_b" d="M 419.874 492.1881 L 419.0707 490.9214"/>
  <path id="score_hinge_75" d="M 359.8499 348.8562 L 360.5399 350.188"/>
  <path id="score_hinge_75_b" d="M 359.8499 348.8562 L 361.0035 349.8149"/>
  <path id="score_hinge_76" d="M 495.742 332.8285 L 494.9304 331.567"/>
  <path id="score_hinge_76_b" d="M 495.742 332.8285 L 494.5038 331.9819"/>
  <path id="score_hinge_78" d="M 448.8652 259.9678 L 449.8381 258.8261"/>
  <path id="score_hinge_78_b" d="M 448.8652 259.9678 L 449.3176 258.5376"/>
  <path id="score_hinge_79" d="M 236.1082 308.3315 L 237.6005 308.1797"/>
  <path id="score_hinge_79_b" d="M 236.1082 308.3315 L 237.4241 307.6114"/>
  <path id="score_hinge_80" d="M 207.8603 355.2341 L 208.6341 353.9491"/>
  <path id="score_hinge_80_b" d="M 207.8603 355.2341 L 208.0736 353.7493"/>
  <path id="score_hinge_81" d="M 215.6486 301.0387 L 214.2248 300.5666"/>
  <path id="score_hinge_81_b" d="M 215.6486 301.0387 L 214.5204 300.0501"/>
  <path id="score_hinge_82" d="M 156.6576 281.4805 L 157.513 282.7126"/>
  <path id="score_hinge_82_b" d="M 156.6576 281.4805 L 156.9666 282.9483"/>
  <path id="score_hinge_83" d="M 243.8966 254.1361 L 243.6832 255.6208"/>
  <path id="score_hinge_83_b" d="M 243.8966 254.1361 L 243.1227 255.421"/>
  <path id="score_hinge_84" d="M 90.352 91.7426 L 90.9266 93.1282"/>
  <path id="score_hinge_84_b" d="M 90.352 91.7426 L 91.4201 92.7957"/>
  <path id="score_hinge_85" d="M 99.7058 114.2974 L 98.3943 113.5695"/>
  <path id="score_hinge_85_b" d="M 99.7058 114.2974 L 98.2144 114.1367"/>
  <path id="score_hinge_86" d="M 273.5842 443.3843 L 272.1337 443.7664"/>
  <path id="score_hinge_86_b" d="M 273.5842 443.3843 L 272.3965 444.3003"/>
  <path id="score_hinge_87" d="M 199.7787 462.8281 L 200.0493 461.3527"/>
  <path id="score_hinge_87_b" d="M 199.7787 462.8281 L 199.4543 461.3636"/>
  <path id="score_hinge_88" d="M 139.166 471.41 L 140.6511 471.1997"/>
  <path id="score_hinge_88_b" d="M 139.166 471.41 L 140.616 471.7938"/>
  <path id="score_hinge_89" d="M 213.1466 489.9956 L 214.6462 490.0284"/>
  <path id="score_hinge_89_b" d="M 213.1466 489.9956 L 214.5154 490.6089"/>
  <path id="score_hinge_90" d="M 198.5211 525.1006 L 199.098 523.7159"/>
  <path id="score_hinge_90_b" d="M 198.5211 525.1006 L 198.5142 523.6006"/>
  <path id="score_hinge_91" d="M 300.0408 507.1954 L 301.1576 506.194"/>
  <path id="score_hinge_91_b" d="M 300.0408 507.1954 L 301.4591 506.7071"/>
  <path id="score_hinge_92" d="M 342.8241 468.8354 L 341.3676 468.4764"/>
  <path id="score_hinge_92_b" d="M 342.8241 468.8354 L 341.6218 467.9384"/>
  <path id="score_hinge_93" d="M 394.9665 452.911 L 393.5319 453.3492"/>
  <path id="score_hinge_93_b" d="M 394.9665 452.911 L 393.8152 453.8725"/>
  <path id="score_hinge_95" d="M 365.7543 495.1941 L 366.5318 496.4769"/>
  <path id="score_hinge_95_b" d="M 365.7543 495.1941 L 365.9718 496.6782"/>
  <path id="score_hinge_97" d="M 111.4753 360.5757 L 111.7872 362.0429"/>
  <path id="score_hinge_97_b" d="M 111.4753 360.5757 L 111.1922 362.0487"/>
  <path id="score_hinge_98" d="M 175.154 369.3394 L 173.668 369.1349"/>
  <path id="score_hinge_98_b" d="M 175.154 369.3394 L 173.8644 368.5732"/>
  <path id="score_hinge_99" d="M 119.8936 336.5055 L 120.7269 335.2582"/>
  <path id="score_hinge_99_b" d="M 119.8936 336.5055 L 120.1764 335.0324"/>
  <path id="score_hinge_100" d="M 37.387 276.0687 L 38.8869 276.0916"/>
  <path id="score_hinge_100_b" d="M 37.387 276.0687 L 38.7778 275.5067"/>
  <path id="score_hinge_101" d="M 92.5541 351.6837 L 91.67 350.4719"/>
  <path id="score_hinge_101_b" d="M 92.5541 351.6837 L 91.2684 350.911"/>
  <path id="score_hinge_102" d="M 68.7235 276.5477 L 69.177 277.9775"/>
  <path id="score_hinge_102_b" d="M 68.7235 276.5477 L 69.6973 277.6887"/>
  <path id="score_hinge_103" d="M 132.3696 271.5155 L 130.8743 271.6338"/>
  <path id="score_hinge_103_b" d="M 132.3696 271.5155 L 130.946 271.043"/>
  <path id="score_hinge_105" d="M 152.714 567.0452 L 154.1271 566.5421"/>
  <path id="score_hinge_105_b" d="M 152.714 567.0452 L 153.8202 566.0322"/>
  <path id="score_hinge_106" d="M 198.346 487.0712 L 197.6026 488.374"/>
  <path id="score_hinge_106_b" d="M 198.346 487.0712 L 197.1546 487.9824"/>
  <path id="score_hinge_108" d="M 103.0869 404.2163 L 101.6734 404.7184"/>
  <path id="score_hinge_108_b" d="M 103.0869 404.2163 L 101.5894 404.1293"/>
  <path id="score_hinge_109" d="M 81.3381 411.9421 L 82.3207 413.0755"/>
  <path id="score_hinge_109_b" d="M 81.3381 411.9421 L 81.8027 413.3684"/>
  <path id="score_hinge_110" d="M 82.0339 528.5206 L 82.0249 527.0206"/>
  <path id="score_hinge_110_b" d="M 82.0339 528.5206 L 81.4424 527.1421"/>
  <path id="score_hinge_111" d="M 80.0455 402.8777 L 80.4015 401.4206"/>
  <path id="score_hinge_111_b" d="M 80.0455 402.8777 L 80.94 401.6737"/>
  <path id="score_hinge_112" d="M 12.3271 303.469 L 13.1716 304.7087"/>
  <path id="score_hinge_112_b" d="M 12.3271 303.469 L 12.6231 304.9395"/>
  <path id="score_hinge_113" d="M 399.0621 314.2834 L 399.1076 315.7828"/>
  <path id="score_hinge_113_b" d="M 399.0621 314.2834 L 399.687 315.6471"/>
  <path id="score_hinge_114" d="M 365.3703 333.6033 L 366.6716 332.8572"/>
  <path id="score_hinge_114_b" d="M 365.3703 333.6033 L 366.279 332.4099"/>
  <path id="score_hinge_115" d="M 400.2947 354.8689 L 399.0135 354.0888"/>
  <path id="score_hinge_115_b" d="M 400.2947 354.8689 L 398.811 354.6483"/>
  <path id="score_hinge_116" d="M 416.6827 396.0886 L 416.1285 394.6947"/>
  <path id="score_hinge_116_b" d="M 416.6827 396.0886 L 416.7141 394.5889"/>
  <path id="score_hinge_118" d="M 422.5907 283.3836 L 421.682 284.577"/>
  <path id="score_hinge_118_b" d="M 422.5907 283.3836 L 421.2894 284.1298"/>
  <path id="score_hinge_119" d="M 417.6115 351.7404 L 419.0919 351.9821"/>
  <path id="score_hinge_119_b" d="M 417.6115 351.7404 L 419.0694 351.3875"/>
  <path id="score_hinge_120" d="M 37.1859 244.6937 L 38.4315 245.5295"/>
  <path id="score_hinge_120_b" d="M 37.1859 244.6937 L 38.6585 244.9794"/>
  <path id="score_hinge_121" d="M 45.9045 257.7862 L 45.0731 256.5377"/>
  <path id="score_hinge_121_b" d="M 45.9045 257.7862 L 44.653 256.9592"/>
  <path id="score_hinge_122" d="M 66.444 264.3256 L 65.0147 263.8706"/>
  <path id="score_hinge_122_b" d="M 66.444 264.3256 L 64.9502 264.4621"/>
  <path id="score_hinge_125" d="M 388.8989 302.7035 L 387.9558 301.5371"/>
  <path id="score_hinge_125_b" d="M 388.8989 302.7035 L 388.4835 301.2622"/>
  <path id="score_hinge_127" d="M 368.8249 282.0565 L 367.4328 282.6153"/>
  <path id="score_hinge_127_b" d="M 368.8249 282.0565 L 367.3251 282.03"/>
  <path id="score_hinge_128" d="M 358.7302 248.5538 L 359.163 249.9901"/>
  <path id="score_hinge_128_b" d="M 358.7302 248.5538 L 359.6874 249.7088"/>
  <path id="score_hinge_129" d="M 381.0572 275.4952 L 382.5238 275.1801"/>
  <path id="score_hinge_129_b" d="M 381.0572 275.4952 L 382.5309 275.7751"/>
  <path id="score_hinge_130" d="M 422.3897 266.6136 L 420.9466 266.2043"/>
  <path id="score_hinge_130_b" d="M 422.3897 266.6136 L 421.2194 265.6754"/>
  <path id="score_hinge_131" d="M 422.9131 178.6134 L 423.542 177.2516"/>
  <path id="score_hinge_131_b" d="M 422.9131 178.6134 L 422.963 177.1142"/>
  <path id="score_hinge_132" d="M 468.6583 197.4006 L 467.2707 196.8307"/>
  <path id="score_hinge_132_b" d="M 468.6583 197.4006 L 467.1583 197.4151"/>
  <path id="score_hinge_133" d="M 419.2077 197.8786 L 419.8543 199.2321"/>
  <path id="score_hinge_133_b" d="M 419.2077 197.8786 L 419.2771 199.377"/>
  <path id="score_hinge_134" d="M 370.7616 225.2226 L 371.6784 224.0354"/>
  <path id="score_hinge_134_b" d="M 370.7616 225.2226 L 372.0679 224.4853"/>
  <path id="score_hinge_135" d="M 404.7636 181.1932 L 403.3266 180.7628"/>
  <path id="score_hinge_135_b" d="M 404.7636 181.1932 L 403.607 180.238"/>
  <path id="score_hinge_136" d="M 407.4646 135.062 L 407.3769 136.5594"/>
  <path id="score_hinge_136_b" d="M 407.4646 135.062 L 407.966 136.4757"/>
  <path id="score_hinge_137" d="M 168.5204 115.8085 L 167.6008 116.9936"/>
  <path id="score_hinge_137_b" d="M 168.5204 115.8085 L 167.2124 116.5428"/>
  <path id="score_hinge_139" d="M 89.7376 163.0178 L 88.2705 163.3304"/>
  <path id="score_hinge_139_b" d="M 89.7376 163.0178 L 88.2644 162.7354"/>
  <path id="score_hinge_141" d="M 34.8401 216.8293 L 35.9113 215.7793"/>
  <path id="score_hinge_141_b" d="M 34.8401 216.8293 L 36.2353 216.2785"/>
  <path id="score_hinge_142" d="M 65.9718 110.6618 L 66.5918 112.0276"/>
  <path id="score_hinge_142_b" d="M 65.9718 110.6618 L 67.0741 111.6791"/>
  <path id="score_hinge_143" d="M 108.2248 149.6572 L 107.8735 148.199"/>
  <path id="score_hinge_143_b" d="M 108.2248 149.6572 L 108.4681 148.1771"/>
  <path id="score_hinge_144" d="M 114.1249 113.7674 L 115.6238 113.8237"/>
  <path id="score_hinge_144_b" d="M 114.1249 113.7674 L 115.5278 113.2364"/>
  <path id="score_hinge_145" d="M 36.0642 421.386 L 35.6528 422.8285"/>
  <path id="score_hinge_145_b" d="M 36.0642 421.386 L 36.2461 422.875"/>
  <path id="score_hinge_149" d="M 78.5149 34.2157 L 79.7513 35.065"/>
  <path id="score_hinge_149_b" d="M 78.5149 34.2157 L 79.3237 35.4789"/>
  <path id="score_hinge_150" d="M 121.5965 63.8131 L 122.8284 62.9572"/>
  <path id="score_hinge_150_b" d="M 121.5965 63.8131 L 123.0642 63.5036"/>
  <path id="score_hinge_151" d="M 165.0337 94.4976 L 163.8086 93.6322"/>
  <path id="score_hinge_151_b" d="M 165.0337 94.4976 L 163.5685 94.1766"/>
  <path id="score_hinge_152" d="M 106.6983 78.2353 L 105.2614 78.666"/>
  <path id="score_hinge_152_b" d="M 106.6983 78.2353 L 105.542 79.1907"/>
  <path id="score_hinge_154" d="M 104.8565 224.9657 L 103.4164 225.3855"/>
  <path id="score_hinge_154_b" d="M 104.8565 224.9657 L 103.3665 224.7926"/>
  <path id="score_hinge_155" d="M 71.7751 251.4046 L 72.9468 250.4681"/>
  <path id="score_hinge_155_b" d="M 71.7751 251.4046 L 73.2188 250.9974"/>
  <path id="score_hinge_156" d="M 112.5335 239.909 L 113.3308 241.1795"/>
  <path id="score_hinge_156_b" d="M 112.5335 239.909 L 113.7621 240.7695"/>
  <path id="score_hinge_158" d="M 106.3411 188.5976 L 106.8674 190.0022"/>
  <path id="score_hinge_158_b" d="M 106.3411 188.5976 L 106.2799 190.0963"/>
</g>
<g id="engrave" fill="none" stroke="#ff0000" stroke-width="0.1">
  <path id="sigma_0" d="M 242.7477 553.3627 A 4 4 0 1 1 240.6212 558.6047"/>
  <path id="sigma_head_0_m" d="M 240.6212 558.6047 L 239.1287 558.4549"/>
  <path id="sigma_head_0_p" d="M 240.6212 558.6047 L 239.6888 559.7796"/>
  <text id="faceid_0" x="239.0635" y="555.9704" font-size="3" text-anchor="middle" fill="#ff0000" stroke="none">0-</text>
  <path id="sigma_1" d="M 332.387 67.6977 A 4 4 0 1 1 330.2604 72.9396"/>
  <path id="sigma_head_1_m" d="M 330.2604 72.9396 L 328.7679 72.7899"/>
  <path id="sigma_head_1_p" d="M 330.2604 72.9396 L 329.328 74.1146"/>
  <text id="faceid_1" x="328.7028" y="70.3054" font-size="3" text-anchor="middle" fill="#ff0000" stroke="none">1-</text>
  <path id="sigma_2" d="M 316.4142 202.845 A 4 4 0 1 0 311.1723 200.7184"/>
  <path id="sigma_head_2_m" d="M 311.1723 200.7184 L 309.6798 200.5687"/>
  <path id="sigma_head_2_p" d="M 311.1723 200.7184 L 310.2398 201.8934"/>
  <text id="faceid_2" x="312.7299" y="205.4527" font-size="3" text-anchor="middle" fill="#ff0000" stroke="none">2+</text>
  <path id="sigma_3" d="M 267.4577 102.5532 A 4 4 0 1 0 262.2157 100.4266"/>
  <path id="sigma_head_3_m" d="M 262.2157 100.4266 L 260.7232 100.2768"/>
  <path id="sigma_head_3_p" d="M 262.2157 100.4266 L 261.2833 101.6016"/>
  <text id="faceid_3" x="263.7734" y="105.1608" font-size="3" text-anchor="middle" fill="#ff0000" stroke="none">3+</text>
  <path id="sigma_4" d="M 226.125 188.071 A 4 4 0 1 0 220.8831 185.9444"/>
  <path id="sigma_head_4_m" d="M 220.8831 185.9444 L 219.3906 185.7947"/>
  <path id="sigma_head_4_p" d="M 220.8831 185.9444 L 219.9507 187.1194"/>
  <text id="faceid_4" x="222.4408" y="190.6787" font-size="3" text-anchor="middle" fill="#ff0000" stroke="none">4+</text>
  <path id="sigma_5" d="M 270.0073 170.0678 A 4 4 0 1 1 267.8807 175.3097"/>
  <path id="sigma_head_5_m" d="M 267.8807 175.3097 L 266.3882 175.16"/>
  <path id="sigma_head_5_p" d="M 267.8807 175.3097 L 266.9483 176.4847"/>
  <text id="faceid_5" x="266.3231" y="172.6755" font-size="3" text-anchor="middle" fill="#ff0000" stroke="none">5-</text>
  <path id="sigma_6" d="M 460.3086 544.1965 A 4 4 0 1 0 455.0667 542.0699"/>
  <path id="sigma_head_6_m" d="M 455.0667 542.0699 L 453.5742 541.9202"/>
  <path id="sigma_head_6_p" d="M 455.0667 542.0699 L 454.1343 543.2449"/>
  <text id="faceid_6" x="456.6243" y="546.8042" font-size="3" text-anchor="middle" fill="#ff0000" stroke="none">6+</text>
  <path id="sigma_7" d="M 387.5458 92.0902 A 4 4 0 1 0 382.3039 89.9636"/>
  <path id="sigma_head_7_m" d="M 382.3039 89.9636 L 380.8114 89.8139"/>
  <path id="sigma_head_7_p" d="M 382.3039 89.9636 L 381.3714 91.1386"/>
  <text id="faceid_7" x="383.8615" y="94.6979" font-size="3" text-anchor="middle" fill="#ff0000" stroke="none">7+</text>
  <path id="sigma_8" d="M 388.6525 111.9202 A 4 4 0 1 1 386.5259 117.1622"/>
  <path id="sigma_head_8_m" d="M 386.5259 117.1622 L 385.0334 117.0124"/>
  <path id="sigma_head_8_p" d="M 386.5259 117.1622 L 385.5935 118.3372"/>
  <text id="faceid_8" x="384.9682" y="114.5279" font-size="3" text-anchor="middle" fill="#ff0000" stroke="none">8-</text>
  <path id="sigma_9" d="M 277.2253 482.998 A 4 4 0 1 0 271.9834 480.8715"/>
  <path id="sigma_head_9_m" d="M 271.9834 480.8715 L 270.4909 480.7217"/>
  <path id="sigma_head_9_p" d="M 271.9834 480.8715 L 271.051 482.0465"/>
  <text id="faceid_9" x="273.541" y="485.6057" font-size="3" text-anchor="middle" fill="#ff0000" stroke="none">9+</text>
  <path id="sigma_10" d="M 242.4404 528.4662 A 4 4 0 1 1 240.3139 533.7081"/>
  <path id="sigma_head_10_m" d="M 240.3139 533.7081 L 238.8214 533.5584"/>
  <path id="sigma_head_10_p" d="M 240.3139 533.7081 L 239.3814 534.8831"/>
  <text id="faceid_10" x="238.7562" y="531.0739" font-size="3" text-anchor="middle" fill="#ff0000" stroke="none">10-</text>
  <path id="sigma_11" d="M 274.4347 520.5627 A 4 4 0 1 0 269.1928 518.4361"/>
  <path id="sigma_head_11_m" d="M 269.1928 518.4361 L 267.7003 518.2863"/>
  <path id="sigma_head_11_p" d="M 269.1928 518.4361 L 268.2604 519.6111"/>
  <text id="faceid_11" x="270.7505" y="523.1703" font-size="3" text-anchor="middle" fill="#ff0000" stroke="none">11+</text>
  <path id="sigma_12" d="M 37.4365 95.4552 A 4 4 0 1 1 35.3099 100.6971"/>
  <path id="sigma_head_12_m" d="M 35.3099 100.6971 L 33.8174 100.5473"/>
  <path id="sigma_head_12_p" d="M 35.3099 100.6971 L 34.3775 101.8721"/>
  <text id="faceid_12" x="33.7522" y="98.0629" font-size="3" text-anchor="middle" fill="#ff0000" stroke="none">12-</text>
  <path id="sigma_13" d="M 419.3061 87.6756 A 3.0837 3.0837 0 1 1 417.6667 91.7167"/>
  <path id="sigma_head_13_m" d="M 417.6667 91.7167 L 416.1742 91.5669"/>
  <path id="sigma_head_13_p" d="M 417.6667 91.7167 L 416.7343 92.8917"/>
  <text id="faceid_13" x="416.4659" y="89.9264" font-size="3" text-anchor="middle" fill="#ff0000" stroke="none">13-</text>
  <path id="sigma_14" d="M 416.0031 101.6558 A 2.7319 2.7319 0 1 0 412.423 100.2034"/>
  <path id="sigma_head_14_m" d="M 412.423 100.2034 L 411.0638 100.067"/>
  <path id="sigma_head_14_p" d="M 412.423 100.2034 L 411.5739 101.2733"/>
  <text id="faceid_14" x="413.4868" y="103.7696" font-size="3" text-anchor="middle" fill="#ff0000" stroke="none">14+</text>
  <path id="sigma_15" d="M 56.8347 58.2782 A 4 4 0 1 0 51.5928 56.1517"/>
  <path id="sigma_head_15_m" d="M 51.5928 56.1517 L 50.1002 56.0019"/>
  <path id="sigma_head_15_p" d="M 51.5928 56.1517 L 50.6603 57.3267"/>
  <text id="faceid_15" x="53.1504" y="60.8859" font-size="3" text-anchor="middle" fill="#ff0000" stroke="none">15+</text>
  <path id="sigma_16" d="M 75.71 72.9004 A 4 4 0 1 1 73.5834 78.1423"/>
  <path id="sigma_head_16_m" d="M 73.5834 78.1423 L 72.0909 77.9926"/>
  <path id="sigma_head_16_p" d="M 73.5834 78.1423 L 72.651 79.3173"/>
  <text id="faceid_16" x="72.0257" y="75.5081" font-size="3" text-anchor="middle" fill="#ff0000" stroke="none">16-</text>
  <path id="sigma_17" d="M 285.5284 560.475 A 4 4 0 1 0 280.2865 558.3485"/>
  <path id="sigma_head_17_m" d="M 280.2865 558.3485 L 278.794 558.1987"/>
  <path id="sigma_head_17_p" d="M 280.2865 558.3485 L 279.3541 559.5235"/>
  <text id="faceid_17" x="281.8441" y="563.0827" font-size="3" text-anchor="middle" fill="#ff0000" stroke="none">17+</text>
  <path id="sigma_18" d="M 299.8121 534.8422 A 4 4 0 1 1 297.6855 540.0841"/>
  <path id="sigma_head_18_m" d="M 297.6855 540.0841 L 296.193 539.9344"/>
  <path id="sigma_head_18_p" d="M 297.6855 540.0841 L 296.7531 541.2591"/>
  <text id="faceid_18" x="296.1278" y="537.4499" font-size="3" text-anchor="middle" fill="#ff0000" stroke="none">18-</text>
  <path id="sigma_19" d="M 325.4017 578.3132 A 4 4 0 1 1 323.2752 583.5551"/>
  <path id="sigma_head_19_m" d="M 323.2752 583.5551 L 321.7826 583.4053"/>
  <path id="sigma_head_19_p" d="M 323.2752 583.5551 L 322.3427 584.7301"/>
  <text id="faceid_19" x="321.7175" y="580.9208" font-size="3" text-anchor="middle" fill="#ff0000" stroke="none">19-</text>
  <path id="sigma_20" d="M 142.8198 413.4309 A 4 4 0 1 0 137.5779 411.3043"/>
  <path id="sigma_head_20_m" d="M 137.5779 411.3043 L 136.0854 411.1546"/>
  <path id="sigma_head_20_p" d="M 137.5779 411.3043 L 136.6455 412.4793"/>
  <text id="faceid_20" x="139.1356" y="416.0386" font-size="3" text-anchor="middle" fill="#ff0000" stroke="none">20+</text>
  <path id="sigma_21" d="M 276.7309 281.021 A 4 4 0 1 0 271.489 278.8944"/>
  <path id="sigma_head_21_m" d="M 271.489 278.8944 L 269.9965 278.7447"/>
  <path id="sigma_head_21_p" d="M 271.489 278.8944 L 270.5566 280.0694"/>
  <text id="faceid_21" x="273.0466" y="283.6287" font-size="3" text-anchor="middle" fill="#ff0000" stroke="none">21+</text>
  <path id="sigma_22" d="M 310.0509 254.1435 A 4 4 0 1 1 307.9243 259.3854"/>
  <path id="sigma_head_22_m" d="M 307.9243 259.3854 L 306.4318 259.2356"/>
  <path id="sigma_head_22_p" d="M 307.9243 259.3854 L 306.9919 260.5604"/>
  <text id="faceid_22" x="306.3666" y="256.7511" font-size="3" text-anchor="middle" fill="#ff0000" stroke="none">22-</text>
  <path id="sigma_23" d="M 456.3605 148.1427 A 4 4 0 1 1 454.2339 153.3846"/>
  <path id="sigma_head_23_m" d="M 454.2339 153.3846 L 452.7414 153.2349"/>
  <path id="sigma_head_23_p" d="M 454.2339 153.3846 L 453.3015 154.5596"/>
  <text id="faceid_23" x="452.6762" y="150.7504" font-size="3" text-anchor="middle" fill="#ff0000" stroke="none">23-</text>
  <path id="sigma_24" d="M 428.5522 130.0241 A 4 4 0 1 0 423.3103 127.8975"/>
  <path id="sigma_head_24_m" d="M 423.3103 127.8975 L 421.8178 127.7478"/>
  <path id="sigma_head_24_p" d="M 423.3103 127.8975 L 422.3779 129.0725"/>
  <text id="faceid_24" x="424.8679" y="132.6318" font-size="3" text-anchor="middle" fill="#ff0000" stroke="none">24+</text>
  <path id="sigma_25" d="M 217.2965 93.2807 A 4 4 0 1 1 215.1699 98.5226"/>
  <path id="sigma_head_25_m" d="M 215.1699 98.5226 L 213.6774 98.3729"/>
  <path id="sigma_head_25_p" d="M 215.1699 98.5226 L 214.2375 99.6976"/>
  <text id="faceid_25" x="213.6122" y="95.8884" font-size="3" text-anchor="middle" fill="#ff0000" stroke="none">25-</text>
  <path id="sigma_26" d="M 202.2269 139.2821 A 4 4 0 1 0 196.985 137.1555"/>
  <path id="sigma_head_26_m" d="M 196.985 137.1555 L 195.4925 137.0057"/>
  <path id="sigma_head_26_p" d="M 196.985 137.1555 L 196.0526 138.3305"/>
  <text id="faceid_26" x="198.5427" y="141.8897" font-size="3" text-anchor="middle" fill="#ff0000" stroke="none">26+</text>
  <path id="sigma_27" d="M 200.5997 227.2469 A 4 4 0 1 1 198.4732 232.4888"/>
  <path id="sigma_head_27_m" d="M 198.4732 232.4888 L 196.9806 232.339"/>
  <path id="sigma_head_27_p" d="M 198.4732 232.4888 L 197.5407 233.6638"/>
  <text id="faceid_27" x="196.9155" y="229.8546" font-size="3" text-anchor="middle" fill="#ff0000" stroke="none">27-</text>
  <path id="sigma_28" d="M 265.9645 388.8673 A 4 4 0 1 1 263.8379 394.1092"/>
  <path id="sigma_head_28_m" d="M 263.8379 394.1092 L 262.3454 393.9595"/>
  <path id="sigma_head_28_p" d="M 263.8379 394.1092 L 262.9055 395.2842"/>
  <text id="faceid_28" x="262.2803" y="391.475" font-size="3" text-anchor="middle" fill="#ff0000" stroke="none">28-</text>
  <path id="sigma_29" d="M 254.5697 344.2101 A 4 4 0 1 0 249.3278 342.0836"/>
  <path id="sigma_head_29_m" d="M 249.3278 342.0836 L 247.8353 341.9338"/>
  <path id="sigma_head_29_p" d="M 249.3278 342.0836 L 248.3954 343.2585"/>
  <text id="faceid_29" x="250.8855" y="346.8178" font-size="3" text-anchor="middle" fill="#ff0000" stroke="none">29+</text>
  <path id="sigma_30" d="M 317.0917 392.0021 A 4 4 0 1 0 311.8498 389.8755"/>
  <path id="sigma_head_30_m" d="M 311.8498 389.8755 L 310.3573 389.7258"/>
  <path id="sigma_head_30_p" d="M 311.8498 389.8755 L 310.9174 391.0505"/>
  <text id="faceid_30" x="313.4075" y="394.6098" font-size="3" text-anchor="middle" fill="#ff0000" stroke="none">30+</text>
  <path id="sigma_31" d="M 291.3285 318.8203 A 4 4 0 1 1 289.2019 324.0622"/>
  <path id="sigma_head_31_m" d="M 289.2019 324.0622 L 287.7094 323.9124"/>
  <path id="sigma_head_31_p" d="M 289.2019 324.0622 L 288.2695 325.2372"/>
  <text id="faceid_31" x="287.6442" y="321.428" font-size="3" text-anchor="middle" fill="#ff0000" stroke="none">31-</text>
  <path id="sigma_32" d="M 339.8146 364.0614 A 4 4 0 1 1 337.688 369.3033"/>
  <path id="sigma_head_32_m" d="M 337.688 369.3033 L 336.1955 369.1535"/>
  <path id="sigma_head_32_p" d="M 337.688 369.3033 L 336.7556 370.4783"/>
  <text id="faceid_32" x="336.1303" y="366.669" font-size="3" text-anchor="middle" fill="#ff0000" stroke="none">32-</text>
  <path id="sigma_33" d="M 326.7047 331.9737 A 4 4 0 1 0 321.4628 329.8471"/>
  <path id="sigma_head_33_m" d="M 321.4628 329.8471 L 319.9703 329.6974"/>
  <path id="sigma_head_33_p" d="M 321.4628 329.8471 L 320.5304 331.0221"/>
  <text id="faceid_33" x="323.0205" y="334.5814" font-size="3" text-anchor="middle" fill="#ff0000" stroke="none">33+</text>
  <path id="sigma_34" d="M 493.0674 486.6931 A 4 4 0 1 1 490.9409 491.935"/>
  <path id="sigma_head_34_m" d="M 490.9409 491.935 L 489.4484 491.7853"/>
  <path id="sigma_head_34_p" d="M 490.9409 491.935 L 490.0084 493.11"/>
  <text id="faceid_34" x="489.3832" y="489.3008" font-size="3" text-anchor="middle" fill="#ff0000" stroke="none">34-</text>
  <path id="sigma_35" d="M 349.8606 415.1002 A 4 4 0 1 1 347.734 420.3421"/>
  <path id="sigma_head_35_m" d="M 347.734 420.3421 L 346.2415 420.1924"/>
  <path id="sigma_head_35_p" d="M 347.734 420.3421 L 346.8016 421.5171"/>
  <text id="faceid_35" x="346.1764" y="417.7079" font-size="3" text-anchor="middle" fill="#ff0000" stroke="none">35-</text>
  <path id="sigma_36" d="M 445.1961 449.5855 A 4 4 0 1 0 439.9542 447.4589"/>
  <path id="sigma_head_36_m" d="M 439.9542 447.4589 L 438.4617 447.3091"/>
  <path id="sigma_head_36_p" d="M 439.9542 447.4589 L 439.0217 448.6339"/>
  <text id="faceid_36" x="441.5118" y="452.1931" font-size="3" text-anchor="middle" fill="#ff0000" stroke="none">36+</text>
  <path id="sigma_37" d="M 373.2742 380.0054 A 4 4 0 1 0 368.0323 377.8789"/>
  <path id="sigma_head_37_m" d="M 368.0323 377.8789 L 366.5398 377.7291"/>
  <path id="sigma_head_37_p" d="M 368.0323 377.8789 L 367.0999 379.0538"/>
  <text id="faceid_37" x="369.59" y="382.6131" font-size="3" text-anchor="middle" fill="#ff0000" stroke="none">37+</text>
  <path id="sigma_38" d="M 482.3628 266.0477 A 4 4 0 1 0 477.1209 263.9212"/>
  <path id="sigma_head_38_m" d="M 477.1209 263.9212 L 475.6284 263.7714"/>
  <path id="sigma_head_38_p" d="M 477.1209 263.9212 L 476.1885 265.0962"/>
  <text id="faceid_38" x="478.6786" y="268.6554" font-size="3" text-anchor="middle" fill="#ff0000" stroke="none">38+</text>
  <path id="sigma_39" d="M 238.7572 321.5553 A 4 4 0 1 0 233.5153 319.4287"/>
  <path id="sigma_head_39_m" d="M 233.5153 319.4287 L 232.0228 319.279"/>
  <path id="sigma_head_39_p" d="M 233.5153 319.4287 L 232.5828 320.6037"/>
  <text id="faceid_39" x="235.0729" y="324.163" font-size="3" text-anchor="middle" fill="#ff0000" stroke="none">39+</text>
  <path id="sigma_40" d="M 197.073 311.0267 A 4 4 0 1 1 194.9465 316.2686"/>
  <path id="sigma_head_40_m" d="M 194.9465 316.2686 L 193.454 316.1189"/>
  <path id="sigma_head_40_p" d="M 194.9465 316.2686 L 194.0141 317.4436"/>
  <text id="faceid_40" x="193.3888" y="313.6344" font-size="3" text-anchor="middle" fill="#ff0000" stroke="none">40-</text>
  <path id="sigma_41" d="M 249.7783 284.6645 A 4 4 0 1 1 247.6517 289.9064"/>
  <path id="sigma_head_41_m" d="M 247.6517 289.9064 L 246.1592 289.7566"/>
  <path id="sigma_head_41_p" d="M 247.6517 289.9064 L 246.7193 291.0814"/>
  <text id="faceid_41" x="246.094" y="287.2721" font-size="3" text-anchor="middle" fill="#ff0000" stroke="none">41-</text>
  <path id="sigma_42" d="M 213.1674 270.1947 A 4 4 0 1 0 207.9254 268.0681"/>
  <path id="sigma_head_42_m" d="M 207.9254 268.0681 L 206.4329 267.9183"/>
  <path id="sigma_head_42_p" d="M 207.9254 268.0681 L 206.993 269.2431"/>
  <text id="faceid_42" x="209.4831" y="272.8023" font-size="3" text-anchor="middle" fill="#ff0000" stroke="none">42+</text>
  <path id="sigma_43" d="M 89.9947 99.8971 A 3.5779 3.5779 0 1 0 85.3059 97.9949"/>
  <path id="sigma_head_43_m" d="M 85.3059 97.9949 L 83.8134 97.8452"/>
  <path id="sigma_head_43_p" d="M 85.3059 97.9949 L 84.3735 99.1699"/>
  <text id="faceid_43" x="86.6992" y="102.3404" font-size="3" text-anchor="middle" fill="#ff0000" stroke="none">43+</text>
  <path id="sigma_44" d="M 232.3505 431.4197 A 4 4 0 1 0 227.1086 429.2931"/>
  <path id="sigma_head_44_m" d="M 227.1086 429.2931 L 225.6161 429.1434"/>
  <path id="sigma_head_44_p" d="M 227.1086 429.2931 L 226.1762 430.4681"/>
  <text id="faceid_44" x="228.6663" y="434.0274" font-size="3" text-anchor="middle" fill="#ff0000" stroke="none">44+</text>
  <path id="sigma_45" d="M 178.1206 440.9341 A 4 4 0 1 1 175.994 446.1761"/>
  <path id="sigma_head_45_m" d="M 175.994 446.1761 L 174.5015 446.0263"/>
  <path id="sigma_head_45_p" d="M 175.994 446.1761 L 175.0616 447.351"/>
  <text id="faceid_45" x="174.4363" y="443.5418" font-size="3" text-anchor="middle" fill="#ff0000" stroke="none">45-</text>
  <path id="sigma_46" d="M 249.6104 473.1774 A 4 4 0 1 1 247.4838 478.4193"/>
  <path id="sigma_head_46_m" d="M 247.4838 478.4193 L 245.9913 478.2696"/>
  <path id="sigma_head_46_p" d="M 247.4838 478.4193 L 246.5514 479.5943"/>
  <text id="faceid_46" x="245.9262" y="475.7851" font-size="3" text-anchor="middle" fill="#ff0000" stroke="none">46-</text>
  <path id="sigma_47" d="M 223.4877 505.3067 A 4 4 0 1 0 218.2457 503.1801"/>
  <path id="sigma_head_47_m" d="M 218.2457 503.1801 L 216.7532 503.0304"/>
  <path id="sigma_head_47_p" d="M 218.2457 503.1801 L 217.3133 504.3551"/>
  <text id="faceid_47" x="219.8034" y="507.9144" font-size="3" text-anchor="middle" fill="#ff0000" stroke="none">47+</text>
  <path id="sigma_48" d="M 314.7249 475.7459 A 4 4 0 1 1 312.5983 480.9879"/>
  <path id="sigma_head_48_m" d="M 312.5983 480.9879 L 311.1058 480.8381"/>
  <path id="sigma_head_48_p" d="M 312.5983 480.9879 L 311.6659 482.1629"/>
  <text id="faceid_48" x="311.0407" y="478.3536" font-size="3" text-anchor="middle" fill="#ff0000" stroke="none">48-</text>
  <path id="sigma_49" d="M 349.4247 451.1779 A 4 4 0 1 0 344.1828 449.0513"/>
  <path id="sigma_head_49_m" d="M 344.1828 449.0513 L 342.6903 448.9016"/>
  <path id="sigma_head_49_p" d="M 344.1828 449.0513 L 343.2504 450.2263"/>
  <text id="faceid_49" x="345.7405" y="453.7856" font-size="3" text-anchor="middle" fill="#ff0000" stroke="none">49+</text>
  <path id="sigma_50" d="M 405.6005 518.0314 A 4 4 0 1 1 403.474 523.2733"/>
  <path id="sigma_head_50_m" d="M 403.474 523.2733 L 401.9814 523.1235"/>
  <path id="sigma_head_50_p" d="M 403.474 523.2733 L 402.5415 524.4483"/>
  <text id="faceid_50" x="401.9163" y="520.6391" font-size="3" text-anchor="middle" fill="#ff0000" stroke="none">50-</text>
  <path id="sigma_51" d="M 364.514 536.0517 A 4 4 0 1 0 359.2721 533.9251"/>
  <path id="sigma_head_51_m" d="M 359.2721 533.9251 L 357.7796 533.7754"/>
  <path id="sigma_head_51_p" d="M 359.2721 533.9251 L 358.3397 535.1001"/>
  <text id="faceid_51" x="360.8298" y="538.6594" font-size="3" text-anchor="middle" fill="#ff0000" stroke="none">51+</text>
  <path id="sigma_52" d="M 393.004 476.0943 A 4 4 0 1 1 390.8775 481.3362"/>
  <path id="sigma_head_52_m" d="M 390.8775 481.3362 L 389.385 481.1864"/>
  <path id="sigma_head_52_p" d="M 390.8775 481.3362 L 389.945 482.5112"/>
  <text id="faceid_52" x="389.3198" y="478.7019" font-size="3" text-anchor="middle" fill="#ff0000" stroke="none">52-</text>
  <path id="sigma_53" d="M 331.1302 509.0283 A 4 4 0 1 0 325.8883 506.9018"/>
  <path id="sigma_head_53_m" d="M 325.8883 506.9018 L 324.3957 506.752"/>
  <path id="sigma_head_53_p" d="M 325.8883 506.9018 L 324.9558 508.0767"/>
  <text id="faceid_53" x="327.4459" y="511.636" font-size="3" text-anchor="middle" fill="#ff0000" stroke="none">53+</text>
  <path id="sigma_54" d="M 139.4658 376.4287 A 4 4 0 1 1 137.3393 381.6706"/>
  <path id="sigma_head_54_m" d="M 137.3393 381.6706 L 135.8467 381.5208"/>
  <path id="sigma_head_54_p" d="M 137.3393 381.6706 L 136.4068 382.8456"/>
  <text id="faceid_54" x="135.7816" y="379.0363" font-size="3" text-anchor="middle" fill="#ff0000" stroke="none">54-</text>
  <path id="sigma_55" d="M 154.2526 327.5508 A 4 4 0 1 0 149.0107 325.4242"/>
  <path id="sigma_head_55_m" d="M 149.0107 325.4242 L 147.5182 325.2744"/>
  <path id="sigma_head_55_p" d="M 149.0107 325.4242 L 148.0783 326.5992"/>
  <text id="faceid_55" x="150.5684" y="330.1584" font-size="3" text-anchor="middle" fill="#ff0000" stroke="none">55+</text>
  <path id="sigma_56" d="M 69.9058 299.8757 A 4 4 0 1 0 64.6639 297.7491"/>
  <path id="sigma_head_56_m" d="M 64.6639 297.7491 L 63.1714 297.5994"/>
  <path id="sigma_head_56_p" d="M 64.6639 297.7491 L 63.7314 298.9241"/>
  <text id="faceid_56" x="66.2215" y="302.4834" font-size="3" text-anchor="middle" fill="#ff0000" stroke="none">56+</text>
  <path id="sigma_57" d="M 110.6798 293.2986 A 4 4 0 1 1 108.5532 298.5405"/>
  <path id="sigma_head_57_m" d="M 108.5532 298.5405 L 107.0607 298.3907"/>
  <path id="sigma_head_57_p" d="M 108.5532 298.5405 L 107.6208 299.7155"/>
  <text id="faceid_57" x="106.9956" y="295.9062" font-size="3" text-anchor="middle" fill="#ff0000" stroke="none">57-</text>
  <path id="sigma_58" d="M 202.6689 564.4122 A 4 4 0 1 0 197.427 562.2856"/>
  <path id="sigma_head_58_m" d="M 197.427 562.2856 L 195.9345 562.1359"/>
  <path id="sigma_head_58_p" d="M 197.427 562.2856 L 196.4946 563.4606"/>
  <text id="faceid_58" x="198.9846" y="567.0198" font-size="3" text-anchor="middle" fill="#ff0000" stroke="none">58+</text>
  <path id="sigma_59" d="M 186.8779 524.848 A 4 4 0 1 1 184.7514 530.0899"/>
  <path id="sigma_head_59_m" d="M 184.7514 530.0899 L 183.2589 529.9401"/>
  <path id="sigma_head_59_p" d="M 184.7514 530.0899 L 183.8189 531.2649"/>
  <text id="faceid_59" x="183.1937" y="527.4557" font-size="3" text-anchor="middle" fill="#ff0000" stroke="none">59-</text>
  <path id="sigma_60" d="M 157.9245 498.9392 A 4 4 0 1 0 152.6826 496.8126"/>
  <path id="sigma_head_60_m" d="M 152.6826 496.8126 L 151.1901 496.6628"/>
  <path id="sigma_head_60_p" d="M 152.6826 496.8126 L 151.7502 497.9876"/>
  <text id="faceid_60" x="154.2403" y="501.5468" font-size="3" text-anchor="middle" fill="#ff0000" stroke="none">60+</text>
  <path id="sigma_61" d="M 102.6016 419.7233 A 4 4 0 1 1 100.475 424.9652"/>
  <path id="sigma_head_61_m" d="M 100.475 424.9652 L 98.9825 424.8155"/>
  <path id="sigma_head_61_p" d="M 100.475 424.9652 L 99.5426 426.1402"/>
  <text id="faceid_61" x="98.9173" y="422.331" font-size="3" text-anchor="middle" fill="#ff0000" stroke="none">61-</text>
  <path id="sigma_62" d="M 90.1386 464.237 A 4 4 0 1 0 84.8967 462.1104"/>
  <path id="sigma_head_62_m" d="M 84.8967 462.1104 L 83.4041 461.9607"/>
  <path id="sigma_head_62_p" d="M 84.8967 462.1104 L 83.9642 463.2854"/>
  <text id="faceid_62" x="86.4543" y="466.8447" font-size="3" text-anchor="middle" fill="#ff0000" stroke="none">62+</text>
  <path id="sigma_63" d="M 65.3264 351.1191 A 4 4 0 1 1 63.1999 356.3611"/>
  <path id="sigma_head_63_m" d="M 63.1999 356.3611 L 61.7074 356.2113"/>
  <path id="sigma_head_63_p" d="M 63.1999 356.3611 L 62.2675 357.5361"/>
  <text id="faceid_63" x="61.6422" y="353.7268" font-size="3" text-anchor="middle" fill="#ff0000" stroke="none">63-</text>
  <path id="sigma_64" d="M 101.8868 387.6656 A 4 4 0 1 0 96.6449 385.539"/>
  <path id="sigma_head_64_m" d="M 96.6449 385.539 L 95.1524 385.3893"/>
  <path id="sigma_head_64_p" d="M 96.6449 385.539 L 95.7124 386.714"/>
  <text id="faceid_64" x="98.2025" y="390.2733" font-size="3" text-anchor="middle" fill="#ff0000" stroke="none">64+</text>
  <path id="sigma_65" d="M 391.9266 332.6942 A 4 4 0 1 0 386.6847 330.5677"/>
  <path id="sigma_head_65_m" d="M 386.6847 330.5677 L 385.1922 330.4179"/>
  <path id="sigma_head_65_p" d="M 386.6847 330.5677 L 385.7523 331.7426"/>
  <text id="faceid_65" x="388.2424" y="335.3019" font-size="3" text-anchor="middle" fill="#ff0000" stroke="none">65+</text>
  <path id="sigma_66" d="M 395.96 365.0469 A 4 4 0 1 1 393.8334 370.2888"/>
  <path id="sigma_head_66_m" d="M 393.8334 370.2888 L 392.3409 370.139"/>
  <path id="sigma_head_66_p" d="M 393.8334 370.2888 L 392.901 371.4638"/>
  <text id="faceid_66" x="392.2758" y="367.6546" font-size="3" text-anchor="middle" fill="#ff0000" stroke="none">66-</text>
  <path id="sigma_67" d="M 416.228 314.73 A 4 4 0 1 1 414.1014 319.9719"/>
  <path id="sigma_head_67_m" d="M 414.1014 319.9719 L 412.6089 319.8222"/>
  <path id="sigma_head_67_p" d="M 414.1014 319.9719 L 413.169 321.1469"/>
  <text id="faceid_67" x="412.5437" y="317.3377" font-size="3" text-anchor="middle" fill="#ff0000" stroke="none">67-</text>
  <path id="sigma_68" d="M 447.4315 369.2839 A 4 4 0 1 0 442.1895 367.1573"/>
  <path id="sigma_head_68_m" d="M 442.1895 367.1573 L 440.697 367.0076"/>
  <path id="sigma_head_68_p" d="M 442.1895 367.1573 L 441.2571 368.3323"/>
  <text id="faceid_68" x="443.7472" y="371.8916" font-size="3" text-anchor="middle" fill="#ff0000" stroke="none">68+</text>
  <path id="sigma_69" d="M 449.5434 321.2746 A 4 4 0 1 1 447.4168 326.5165"/>
  <path id="sigma_head_69_m" d="M 447.4168 326.5165 L 445.9243 326.3668"/>
  <path id="sigma_head_69_p" d="M 447.4168 326.5165 L 446.4844 327.6915"/>
  <text id="faceid_69" x="445.8591" y="323.8823" font-size="3" text-anchor="middle" fill="#ff0000" stroke="none">69-</text>
  <path id="sigma_70" d="M 51.2972 254.9878 A 1.5768 1.5768 0 1 0 49.2307 254.1495"/>
  <path id="sigma_head_70_m" d="M 49.2307 254.1495 L 48.4462 254.0708"/>
  <path id="sigma_head_70_p" d="M 49.2307 254.1495 L 48.7406 254.7671"/>
  <text id="faceid_70" x="49.8448" y="256.3903" font-size="2.2526" text-anchor="middle" fill="#ff0000" stroke="none">70+</text>
  <path id="sigma_71" d="M 51.3145 268.1702 A 1.8582 1.8582 0 1 1 50.3266 270.6053"/>
  <path id="sigma_head_71_m" d="M 50.3266 270.6053 L 49.4022 270.5125"/>
  <path id="sigma_head_71_p" d="M 50.3266 270.6053 L 49.7491 271.3331"/>
  <text id="faceid_71" x="49.603" y="269.8229" font-size="2.6545" text-anchor="middle" fill="#ff0000" stroke="none">71-</text>
  <path id="sigma_72" d="M 41.2288 257.2136 A 2.4201 2.4201 0 1 1 39.9422 260.3851"/>
  <path id="sigma_head_72_m" d="M 39.9422 260.3851 L 38.7382 260.2643"/>
  <path id="sigma_head_72_p" d="M 39.9422 260.3851 L 39.19 261.3329"/>
  <text id="faceid_72" x="38.9997" y="259.206" font-size="3" text-anchor="middle" fill="#ff0000" stroke="none">72-</text>
  <path id="sigma_73" d="M 378.8057 304.1063 A 4 4 0 1 1 376.6791 309.3483"/>
  <path id="sigma_head_73_m" d="M 376.6791 309.3483 L 375.1866 309.1985"/>
  <path id="sigma_head_73_p" d="M 376.6791 309.3483 L 375.7467 310.5232"/>
  <text id="faceid_73" x="375.1214" y="306.714" font-size="3" text-anchor="middle" fill="#ff0000" stroke="none">73-</text>
  <path id="sigma_74" d="M 353.9721 304.8124 A 4 4 0 1 1 351.8455 310.0544"/>
  <path id="sigma_head_74_m" d="M 351.8455 310.0544 L 350.353 309.9046"/>
  <path id="sigma_head_74_p" d="M 351.8455 310.0544 L 350.9131 311.2293"/>
  <text id="faceid_74" x="350.2878" y="307.4201" font-size="3" text-anchor="middle" fill="#ff0000" stroke="none">74-</text>
  <path id="sigma_75" d="M 351.2288 269.0146 A 4 4 0 1 0 345.9869 266.8881"/>
  <path id="sigma_head_75_m" d="M 345.9869 266.8881 L 344.4944 266.7383"/>
  <path id="sigma_head_75_p" d="M 345.9869 266.8881 L 345.0545 268.063"/>
  <text id="faceid_75" x="347.5446" y="271.6223" font-size="3" text-anchor="middle" fill="#ff0000" stroke="none">75+</text>
  <path id="sigma_76" d="M 391.0766 261.9966 A 4 4 0 1 1 388.9501 267.2385"/>
  <path id="sigma_head_76_m" d="M 388.9501 267.2385 L 387.4576 267.0887"/>
  <path id="sigma_head_76_p" d="M 388.9501 267.2385 L 388.0176 268.4135"/>
  <text id="faceid_76" x="387.3924" y="264.6042" font-size="3" text-anchor="middle" fill="#ff0000" stroke="none">76-</text>
  <path id="sigma_77" d="M 401.1999 285.6364 A 4 4 0 1 0 395.9579 283.5099"/>
  <path id="sigma_head_77_m" d="M 395.9579 283.5099 L 394.4654 283.3601"/>
  <path id="sigma_head_77_p" d="M 395.9579 283.5099 L 395.0255 284.6848"/>
  <text id="faceid_77" x="397.5156" y="288.2441" font-size="3" text-anchor="middle" fill="#ff0000" stroke="none">77+</text>
  <path id="sigma_78" d="M 446.2723 173.7336 A 4 4 0 1 0 441.0303 171.607"/>
  <path id="sigma_head_78_m" d="M 441.0303 171.607 L 439.5378 171.4572"/>
  <path id="sigma_head_78_p" d="M 441.0303 171.607 L 440.0979 172.782"/>
  <text id="faceid_78" x="442.588" y="176.3412" font-size="3" text-anchor="middle" fill="#ff0000" stroke="none">78+</text>
  <path id="sigma_79" d="M 449.2613 216.858 A 4 4 0 1 1 447.1348 222.0999"/>
  <path id="sigma_head_79_m" d="M 447.1348 222.0999 L 445.6422 221.9501"/>
  <path id="sigma_head_79_p" d="M 447.1348 222.0999 L 446.2023 223.2749"/>
  <text id="faceid_79" x="445.5771" y="219.4657" font-size="3" text-anchor="middle" fill="#ff0000" stroke="none">79-</text>
  <path id="sigma_80" d="M 373.7465 187.3138 A 4 4 0 1 1 371.6199 192.5557"/>
  <path id="sigma_head_80_m" d="M 371.6199 192.5557 L 370.1274 192.406"/>
  <path id="sigma_head_80_p" d="M 371.6199 192.5557 L 370.6875 193.7307"/>
  <text id="faceid_80" x="370.0622" y="189.9215" font-size="3" text-anchor="middle" fill="#ff0000" stroke="none">80-</text>
  <path id="sigma_81" d="M 390.5406 148.7252 A 4 4 0 1 0 385.2987 146.5986"/>
  <path id="sigma_head_81_m" d="M 385.2987 146.5986 L 383.8062 146.4488"/>
  <path id="sigma_head_81_p" d="M 385.2987 146.5986 L 384.3663 147.7736"/>
  <text id="faceid_81" x="386.8563" y="151.3328" font-size="3" text-anchor="middle" fill="#ff0000" stroke="none">81+</text>
  <path id="sigma_82" d="M 407.8039 228.3473 A 4 4 0 1 0 402.562 226.2207"/>
  <path id="sigma_head_82_m" d="M 402.562 226.2207 L 401.0695 226.0709"/>
  <path id="sigma_head_82_p" d="M 402.562 226.2207 L 401.6296 227.3957"/>
  <text id="faceid_82" x="404.1197" y="230.9549" font-size="3" text-anchor="middle" fill="#ff0000" stroke="none">82+</text>
  <path id="sigma_83" d="M 420.9554 152.3439 A 3.0837 3.0837 0 1 1 419.3159 156.385"/>
  <path id="sigma_head_83_m" d="M 419.3159 156.385 L 417.8234 156.2353"/>
  <path id="sigma_head_83_p" d="M 419.3159 156.385 L 418.3835 157.56"/>
  <text id="faceid_83" x="418.1151" y="154.5947" font-size="3" text-anchor="middle" fill="#ff0000" stroke="none">83-</text>
  <path id="sigma_84" d="M 164.1422 149.4354 A 4 4 0 1 1 162.0156 154.6773"/>
  <path id="sigma_head_84_m" d="M 162.0156 154.6773 L 160.5231 154.5275"/>
  <path id="sigma_head_84_p" d="M 162.0156 154.6773 L 161.0832 155.8523"/>
  <text id="faceid_84" x="160.4579" y="152.043" font-size="3" text-anchor="middle" fill="#ff0000" stroke="none">84-</text>
  <path id="sigma_85" d="M 53.2567 184.0576 A 4 4 0 1 1 51.1301 189.2995"/>
  <path id="sigma_head_85_m" d="M 51.1301 189.2995 L 49.6376 189.1498"/>
  <path id="sigma_head_85_p" d="M 51.1301 189.2995 L 50.1977 190.4745"/>
  <text id="faceid_85" x="49.5724" y="186.6653" font-size="3" text-anchor="middle" fill="#ff0000" stroke="none">85-</text>
  <path id="sigma_86" d="M 63.5425 139.7996 A 4 4 0 1 0 58.3005 137.6731"/>
  <path id="sigma_head_86_m" d="M 58.3005 137.6731 L 56.808 137.5233"/>
  <path id="sigma_head_86_p" d="M 58.3005 137.6731 L 57.3681 138.8481"/>
  <text id="faceid_86" x="59.8582" y="142.4073" font-size="3" text-anchor="middle" fill="#ff0000" stroke="none">86+</text>
  <path id="sigma_87" d="M 94.985 123.3145 A 4 4 0 1 1 92.8585 128.5564"/>
  <path id="sigma_head_87_m" d="M 92.8585 128.5564 L 91.366 128.4066"/>
  <path id="sigma_head_87_p" d="M 92.8585 128.5564 L 91.9261 129.7314"/>
  <text id="faceid_87" x="91.3008" y="125.9221" font-size="3" text-anchor="middle" fill="#ff0000" stroke="none">87-</text>
  <path id="sigma_88" d="M 133.9743 124.8534 A 4 4 0 1 0 128.7323 122.7268"/>
  <path id="sigma_head_88_m" d="M 128.7323 122.7268 L 127.2398 122.5771"/>
  <path id="sigma_head_88_p" d="M 128.7323 122.7268 L 127.7999 123.9018"/>
  <text id="faceid_88" x="130.29" y="127.4611" font-size="3" text-anchor="middle" fill="#ff0000" stroke="none">88+</text>
  <path id="sigma_89" d="M 21.4813 416.8272 A 4 4 0 1 0 16.2394 414.7007"/>
  <path id="sigma_head_89_m" d="M 16.2394 414.7007 L 14.7469 414.5509"/>
  <path id="sigma_head_89_p" d="M 16.2394 414.7007 L 15.307 415.8757"/>
  <text id="faceid_89" x="17.7971" y="419.4349" font-size="3" text-anchor="middle" fill="#ff0000" stroke="none">89+</text>
  <path id="sigma_90" d="M 59.6479 493.0139 A 4 4 0 1 1 57.5213 498.2558"/>
  <path id="sigma_head_90_m" d="M 57.5213 498.2558 L 56.0288 498.106"/>
  <path id="sigma_head_90_p" d="M 57.5213 498.2558 L 56.5889 499.4308"/>
  <text id="faceid_90" x="55.9636" y="495.6215" font-size="3" text-anchor="middle" fill="#ff0000" stroke="none">90-</text>
  <path id="sigma_91" d="M 139.139 32.7852 A 4 4 0 1 1 137.0125 38.0271"/>
  <path id="sigma_head_91_m" d="M 137.0125 38.0271 L 135.52 37.8774"/>
  <path id="sigma_head_91_p" d="M 137.0125 38.0271 L 136.08 39.2021"/>
  <text id="faceid_91" x="135.4548" y="35.3929" font-size="3" text-anchor="middle" fill="#ff0000" stroke="none">91-</text>
  <path id="sigma_92" d="M 173.3808 65.394 A 4 4 0 1 0 168.1389 63.2675"/>
  <path id="sigma_head_92_m" d="M 168.1389 63.2675 L 166.6464 63.1177"/>
  <path id="sigma_head_92_p" d="M 168.1389 63.2675 L 167.2065 64.4425"/>
  <text id="faceid_92" x="169.6965" y="68.0017" font-size="3" text-anchor="middle" fill="#ff0000" stroke="none">92+</text>
  <path id="sigma_93" d="M 94.2174 64.0339 A 4 4 0 1 0 88.9755 61.9074"/>
  <path id="sigma_head_93_m" d="M 88.9755 61.9074 L 87.483 61.7576"/>
  <path id="sigma_head_93_p" d="M 88.9755 61.9074 L 88.0431 63.0823"/>
  <text id="faceid_93" x="90.5331" y="66.6416" font-size="3" text-anchor="middle" fill="#ff0000" stroke="none">93+</text>
  <path id="sigma_94" d="M 105.2426 91.413 A 3.9584 3.9584 0 1 1 103.1381 96.6004"/>
  <path id="sigma_head_94_m" d="M 103.1381 96.6004 L 101.6456 96.4507"/>
  <path id="sigma_head_94_p" d="M 103.1381 96.6004 L 102.2057 97.7754"/>
  <text id="faceid_94" x="101.5966" y="94.0045" font-size="3" text-anchor="middle" fill="#ff0000" stroke="none">94-</text>
  <path id="sigma_95" d="M 134.4316 95.5697 A 4 4 0 1 1 132.3051 100.8116"/>
  <path id="sigma_head_95_m" d="M 132.3051 100.8116 L 130.8126 100.6619"/>
  <path id="sigma_head_95_p" d="M 132.3051 100.8116 L 131.3726 101.9866"/>
  <text id="faceid_95" x="130.7474" y="98.1774" font-size="3" text-anchor="middle" fill="#ff0000" stroke="none">95-</text>
  <path id="sigma_96" d="M 74.8384 238.847 A 3.8715 3.8715 0 1 1 72.7801 243.9205"/>
  <path id="sigma_head_96_m" d="M 72.7801 243.9205 L 71.2876 243.7708"/>
  <path id="sigma_head_96_p" d="M 72.7801 243.9205 L 71.8477 245.0955"/>
  <text id="faceid_96" x="71.2725" y="241.4047" font-size="3" text-anchor="middle" fill="#ff0000" stroke="none">96-</text>
  <path id="sigma_97" d="M 109.2436 252.7187 A 4 4 0 1 0 104.0017 250.5921"/>
  <path id="sigma_head_97_m" d="M 104.0017 250.5921 L 102.5092 250.4424"/>
  <path id="sigma_head_97_p" d="M 104.0017 250.5921 L 103.0693 251.7671"/>
  <text id="faceid_97" x="105.5594" y="255.3264" font-size="3" text-anchor="middle" fill="#ff0000" stroke="none">97+</text>
  <path id="sigma_98" d="M 142.3457 232.8905 A 4 4 0 1 1 140.2191 238.1324"/>
  <path id="sigma_head_98_m" d="M 140.2191 238.1324 L 138.7266 237.9826"/>
  <path id="sigma_head_98_p" d="M 140.2191 238.1324 L 139.2867 239.3074"/>
  <text id="faceid_98" x="138.6614" y="235.4981" font-size="3" text-anchor="middle" fill="#ff0000" stroke="none">98-</text>
  <path id="sigma_99" d="M 134.4804 197.1659 A 4 4 0 1 1 132.3539 202.4078"/>
  <path id="sigma_head_99_m" d="M 132.3539 202.4078 L 130.8614 202.258"/>
  <path id="sigma_head_99_p" d="M 132.3539 202.4078 L 131.4215 203.5828"/>
  <text id="faceid_99" x="130.7962" y="199.7736" font-size="3" text-anchor="middle" fill="#ff0000" stroke="none">99-</text>
  <path id="sigma_100" d="M 85.6968 208.5732 A 4 4 0 1 0 80.4549 206.4466"/>
  <path id="sigma_head_100_m" d="M 80.4549 206.4466 L 78.9624 206.2969"/>
  <path id="sigma_head_100_p" d="M 80.4549 206.4466 L 79.5225 207.6216"/>
  <text id="faceid_100" x="82.0126" y="211.1809" font-size="3" text-anchor="middle" fill="#ff0000" stroke="none">100+</text>
</g>
</svg>
